<svg xmlns="http://www.w3.org/2000/svg" width="133.918" height="133.918" viewBox="0 0 133.918 133.918">
  <defs>
    <style>
      .cls-1 {
        fill: #343434;
      }
    </style>
  </defs>
  <g id="组_551" data-name="组 551" transform="translate(0.067 0.039)">
    <path id="路径_454" data-name="路径 454" class="cls-1" d="M249.127,257.355,212.8,297.5a6.625,6.625,0,0,1-9.274-.163l-16.918-20.7a4.17,4.17,0,1,0-6.454,5.281l17.179,21.009a15.054,15.054,0,0,0,21.5.31l36.46-40.258a4.171,4.171,0,0,0-6.161-5.623Z" transform="translate(-149.864 -214.089)"/>
    <path id="路径_455" data-name="路径 455" class="cls-1" d="M75.417,133.334A66.893,66.893,0,0,0,120,107.684,66.972,66.972,0,0,0,81.1,1.5,66.205,66.205,0,0,0,58.143.54,66.931,66.931,0,0,0,1.464,52.706,65.938,65.938,0,0,0,.549,75.822,66.641,66.641,0,0,0,5.5,93.592c.049.065.065.163.114.229a67.219,67.219,0,0,0,8.874,14.762,4.176,4.176,0,1,0,6.537-5.2,58.2,58.2,0,0,1-10.7-21.3,61.04,61.04,0,0,1-1.52-7.7,59.54,59.54,0,0,1-.474-7.471A57.91,57.91,0,0,1,9.652,54.472a58.69,58.69,0,0,1,30.4-39.66A56.556,56.556,0,0,1,51.72,10.332a58.193,58.193,0,0,1,7.518-1.488,58.938,58.938,0,0,1,7.649-.49A57.491,57.491,0,0,1,79.307,9.678a58.678,58.678,0,0,1,39.649,30.407,56.591,56.591,0,0,1,4.478,11.672,58.241,58.241,0,0,1,1.487,7.52,56.237,56.237,0,0,1,.49,7.651,57.538,57.538,0,0,1-1.324,12.424,58.69,58.69,0,0,1-30.4,39.66,56.556,56.556,0,0,1-11.669,4.479,57.641,57.641,0,0,1-7.371,1.471,61.157,61.157,0,0,1-7.779.507,57.332,57.332,0,0,1-12.356-1.324c-.131-.016-.261-.065-.409-.082-.016,0-.065-.016-.082-.016A57.884,57.884,0,0,1,39.74,118.8a4.179,4.179,0,0,0-3.873,7.406,66.583,66.583,0,0,0,16.9,6.114,65.51,65.51,0,0,0,22.652,1.014Z" transform="translate(0 0)"/>
  </g>
</svg>
