<?xml version="1.0" encoding="UTF-8"?>
<svg width="158px" height="38px" viewBox="0 0 158 38" version="1.1" xmlns="http://www.w3.org/2000/svg" xmlns:xlink="http://www.w3.org/1999/xlink">
    <title>按钮/图标按钮/主按钮图标+文字</title>
    <defs>
        <filter color-interpolation-filters="auto" id="filter-1">
            <feColorMatrix in="SourceGraphic" type="matrix" values="0 0 0 0 1.000000 0 0 0 0 1.000000 0 0 0 0 1.000000 0 0 0 1.000000 0"></feColorMatrix>
        </filter>
    </defs>
    <g id="1.-全局样式" stroke="none" stroke-width="1" fill="none" fill-rule="evenodd">
        <g id="1.7-按钮Button" transform="translate(-890.000000, -2326.000000)">
            <g id="1.7.5-图标按钮" transform="translate(540.000000, 2163.000000)">
                <g id="带图标的按钮" transform="translate(0.000000, 117.000000)">
                    <g id="主按钮图标+文字" transform="translate(350.000000, 0.000000)">
                        <g id="按钮/图标按钮/主按钮图标+文字" transform="translate(0.000000, 46.000000)">
                            <path d="M3,0 L155,0 C156.656854,-3.04359188e-16 158,1.34314575 158,3 L158,35 C158,36.6568542 156.656854,38 155,38 L3,38 C1.34314575,38 -1.57345071e-15,36.6568542 0,35 L0,3 C-2.02906125e-16,1.34314575 1.34314575,7.48448398e-16 3,0 Z" id="矩形" fill="#C00000"></path>
                            <g id="编组" transform="translate(30.000000, 8.000000)">
                                <text id="Add-to-Cart" font-family="OpenSans, Open Sans" font-size="14" font-weight="normal" line-spacing="22" fill="#FFFFFF">
                                    <tspan x="24" y="15">Add to Cart</tspan>
                                </text>
                                <g id="Cart" transform="translate(0.000000, 3.000000)" filter="url(#filter-1)">
                                    <g>
                                        <rect id="矩形" fill="#000000" fill-rule="nonzero" opacity="0" x="0" y="0" width="16" height="16"></rect>
                                        <path d="M10.8578125,14.75 C10.8578125,15.440625 11.4171875,16 12.1078125,16 C12.7984375,16 13.3578125,15.440625 13.3578125,14.75 C13.3578125,14.059375 12.7984375,13.5 12.1078125,13.5 C11.4171875,13.5 10.8578125,14.0609375 10.8578125,14.75 Z M5.4421875,14.75 C5.4421875,15.440625 6.0015625,16 6.6921875,16 C7.3828125,16 7.9421875,15.440625 7.9421875,14.75 C7.9421875,14.059375 7.3828125,13.5 6.6921875,13.5 C6.0015625,13.5 5.4421875,14.0609375 5.4421875,14.75 Z M13.671875,11.8796875 L5.8734375,11.8796875 C5.175,11.8796875 4.5828125,11.3796875 4.465625,10.6921875 L2.884375,1.4265625 L0.725,1.4265625 C0.33125,1.4265625 0.0109375,1.1078125 0.0109375,0.7125 C0.0109375,0.3171875 0.3296875,0 0.725,0 L2.884375,0 C3.5828125,0 4.175,0.5 4.2921875,1.1875 L5.8734375,10.453125 L13.671875,10.453125 C14.065625,10.453125 14.3859375,10.771875 14.3859375,11.1671875 C14.3859375,11.5625 14.0671875,11.8796875 13.671875,11.8796875 Z" id="形状" fill="#000000" fill-rule="nonzero"></path>
                                        <path d="M8.4359375,8.88125 C8.0625,8.88125 7.7484375,8.5921875 7.7234375,8.2140625 C7.6984375,7.821875 7.996875,7.4796875 8.3890625,7.45625 L13.778125,7.103125 L14.559375,3.1015625 L6.98125,3.1015625 C6.5875,3.1015625 6.2671875,2.7828125 6.2671875,2.3875 C6.2671875,1.9921875 6.5859375,1.6734375 6.98125,1.6734375 L14.559375,1.6734375 C14.9875,1.6734375 15.3890625,1.8625 15.6625,2.1921875 C15.9359375,2.521875 16.04375,2.9546875 15.9625,3.3734375 L15.18125,7.375 C15.0578125,8.0046875 14.525,8.478125 13.884375,8.525 L13.8796875,8.525 L8.484375,8.878125 C8.4671875,8.88125 8.4515625,8.88125 8.4359375,8.88125 L8.4359375,8.88125 Z" id="路径" fill="#000000" fill-rule="nonzero"></path>
                                    </g>
                                </g>
                            </g>
                        </g>
                    </g>
                </g>
            </g>
        </g>
    </g>
</svg>