<?xml version="1.0" encoding="UTF-8"?>
<svg width="42px" height="42px" viewBox="0 0 42 42" version="1.1" xmlns="http://www.w3.org/2000/svg" xmlns:xlink="http://www.w3.org/1999/xlink">
    <title>按钮/图标按钮/纯图标</title>
    <g id="1.-全局样式" stroke="none" stroke-width="1" fill="none" fill-rule="evenodd">
        <g id="1.7-按钮Button" transform="translate(-802.000000, -2326.000000)">
            <g id="1.7.5-图标按钮" transform="translate(540.000000, 2163.000000)">
                <g id="带图标的按钮" transform="translate(0.000000, 117.000000)">
                    <g id="纯图标" transform="translate(262.000000, 0.000000)">
                        <g id="按钮/图标按钮/纯图标" transform="translate(0.000000, 46.000000)">
                            <circle id="椭圆形" stroke="#E5E5E5" fill="#FFFFFF" cx="21" cy="21" r="20.5"></circle>
                            <g id="share-icon-20px" transform="translate(11.000000, 11.000000)" fill-rule="nonzero">
                                <rect id="矩形" fill="#000000" opacity="0" x="0" y="0" width="20" height="20"></rect>
                                <path d="M8.41796875,0.1015625 C8.82617188,0.1015625 9.234375,0.40625 9.234375,0.91796875 C9.234375,1.4296875 8.92773437,1.6328125 8.51953125,1.6328125 L8.51953125,1.6328125 L2.6015625,1.6328125 C1.99023437,1.6328125 1.58203125,2.14257813 1.58203125,2.65234375 L1.58203125,2.65234375 L1.58203125,17.3476562 C1.58203125,17.9589844 2.09179688,18.3671875 2.6015625,18.3671875 L2.6015625,18.3671875 L17.296875,18.3671875 C17.9082031,18.3671875 18.3164063,17.8574219 18.3164063,17.3476562 L18.3164063,17.3476562 L18.3164063,11.1230469 C18.3164063,10.7148438 18.6230469,10.3066406 19.1328125,10.3066406 C19.6425781,10.3066406 19.9492188,10.6113281 19.9492188,11.1230469 L19.9492188,11.1230469 L19.9492188,17.3476562 C19.9492188,18.8769531 18.8261719,20 17.3984375,20 L17.3984375,20 L2.6015625,20 C1.17382812,20 0.05078125,18.8769531 0.05078125,17.4492188 L0.05078125,17.4492188 L0.05078125,2.65234375 C0.05078125,1.22460938 1.17382812,0.1015625 2.6015625,0.1015625 L2.6015625,0.1015625 Z M18.1113281,0 C19.1328125,0 19.9492188,0.71484375 19.9492188,1.8359375 L19.9492188,1.8359375 L19.9492188,7.14257812 C19.9492188,7.65234375 19.6425781,7.95898437 19.1328125,7.95898437 C18.7246094,7.95898437 18.3164062,7.65234375 18.3164062,7.14257812 L18.3164062,7.14257812 L18.3164062,2.85742187 L10.5605469,10.6132812 C10.3574219,10.7148437 10.1523438,10.8164062 9.94921875,10.8164062 C9.74609375,10.8164062 9.54101562,10.7148438 9.43945312,10.6132812 C9.1328125,10.3066406 9.1328125,9.796875 9.43945312,9.49023438 L9.43945312,9.49023438 L17.296875,1.6328125 L12.5,1.6328125 C12.0917969,1.6328125 11.6835938,1.32617187 11.6835938,0.81640625 C11.6835938,0.306640625 11.9902344,0 12.5,0 L12.5,0 Z" id="形状结合" fill="#4B4B4D"></path>
                            </g>
                        </g>
                    </g>
                </g>
            </g>
        </g>
    </g>
</svg>