<?xml version="1.0" encoding="UTF-8"?>
<svg width="22px" height="22px" viewBox="0 0 22 22" version="1.1" xmlns="http://www.w3.org/2000/svg" xmlns:xlink="http://www.w3.org/1999/xlink">
    <title>Cart</title>
    <defs>
        <filter color-interpolation-filters="auto" id="filter-1">
            <feColorMatrix in="SourceGraphic" type="matrix" values="0 0 0 0 0.098039 0 0 0 0 0.098039 0 0 0 0 0.101961 0 0 0 1.000000 0"></feColorMatrix>
        </filter>
    </defs>
    <g id="控件" stroke="none" stroke-width="1" fill="none" fill-rule="evenodd">
        <g id="Cart" filter="url(#filter-1)">
            <g>
                <rect id="矩形" fill="#000000" fill-rule="nonzero" opacity="0" x="0" y="0" width="22" height="22"></rect>
                <path d="M14.9294922,20.28125 C14.9294922,21.2308594 15.6986328,22 16.6482422,22 C17.5978516,22 18.3669922,21.2308594 18.3669922,20.28125 C18.3669922,19.3316406 17.5978516,18.5625 16.6482422,18.5625 C15.6986328,18.5625 14.9294922,19.3337891 14.9294922,20.28125 Z M7.48300781,20.28125 C7.48300781,21.2308594 8.25214844,22 9.20175781,22 C10.1513672,22 10.9205078,21.2308594 10.9205078,20.28125 C10.9205078,19.3316406 10.1513672,18.5625 9.20175781,18.5625 C8.25214844,18.5625 7.48300781,19.3337891 7.48300781,20.28125 Z M18.7988281,16.3345703 L8.07597656,16.3345703 C7.115625,16.3345703 6.30136719,15.6470703 6.14023437,14.7017578 L3.96601562,1.96152344 L0.996875,1.96152344 C0.45546875,1.96152344 0.0150390625,1.52324219 0.0150390625,0.9796875 C0.0150390625,0.436132812 0.453320312,0 0.996875,0 L3.96601562,0 C4.92636719,0 5.740625,0.6875 5.90175781,1.6328125 L8.07597656,14.3730469 L18.7988281,14.3730469 C19.3402344,14.3730469 19.7806641,14.8113281 19.7806641,15.3548828 C19.7806641,15.8984375 19.3423828,16.3345703 18.7988281,16.3345703 Z" id="形状" fill="#000000" fill-rule="nonzero"></path>
                <path d="M11.5994141,12.2117188 C11.0859375,12.2117188 10.6541016,11.8142578 10.6197266,11.2943359 C10.5853516,10.7550781 10.9957031,10.2845703 11.5349609,10.2523437 L18.9449219,9.76679687 L20.0191406,4.26464844 L9.59921875,4.26464844 C9.0578125,4.26464844 8.61738281,3.82636719 8.61738281,3.2828125 C8.61738281,2.73925781 9.05566406,2.30097656 9.59921875,2.30097656 L20.0191406,2.30097656 C20.6078125,2.30097656 21.1599609,2.5609375 21.5359375,3.01425781 C21.9119141,3.46757812 22.0601562,4.06269531 21.9484375,4.63847656 L20.8742187,10.140625 C20.7044922,11.0064453 19.971875,11.6574219 19.0910156,11.721875 L19.0845703,11.721875 L11.6660156,12.2074219 C11.6423828,12.2117188 11.6208984,12.2117188 11.5994141,12.2117188 L11.5994141,12.2117188 Z" id="路径" fill="#000000" fill-rule="nonzero"></path>
            </g>
        </g>
    </g>
</svg>