<?xml version="1.0" encoding="UTF-8"?>
<svg width="172px" height="38px" viewBox="0 0 172 38" version="1.1" xmlns="http://www.w3.org/2000/svg" xmlns:xlink="http://www.w3.org/1999/xlink">
    <title>按钮/图标按钮/次按钮图标+文字</title>
    <g id="1.-全局样式" stroke="none" stroke-width="1" fill="none" fill-rule="evenodd">
        <g id="1.7-按钮Button" transform="translate(-1088.000000, -2326.000000)">
            <g id="1.7.5-图标按钮" transform="translate(540.000000, 2163.000000)">
                <g id="带图标的按钮" transform="translate(0.000000, 117.000000)">
                    <g id="次按钮图案+文字" transform="translate(548.000000, 0.000000)">
                        <g id="按钮/图标按钮/次按钮图标+文字" transform="translate(0.000000, 46.000000)">
                            <path d="M169,0.5 C169.690356,0.5 170.315356,0.779822031 170.767767,1.23223305 C171.220178,1.68464406 171.5,2.30964406 171.5,3 L171.5,3 L171.5,35 C171.5,35.6903559 171.220178,36.3153559 170.767767,36.767767 C170.315356,37.220178 169.690356,37.5 169,37.5 L169,37.5 L3,37.5 C2.30964406,37.5 1.68464406,37.220178 1.23223305,36.767767 C0.779822031,36.3153559 0.5,35.6903559 0.5,35 L0.5,35 L0.5,3 C0.5,2.30964406 0.779822031,1.68464406 1.23223305,1.23223305 C1.68464406,0.779822031 2.30964406,0.5 3,0.5 L3,0.5 Z" id="矩形" stroke="#89898C"></path>
                            <g id="编组" transform="translate(30.000000, 8.000000)">
                                <text id="Create-Quote" font-family="OpenSans, Open Sans" font-size="14" font-weight="normal" line-spacing="22" fill="#19191A">
                                    <tspan x="24" y="15">Create Quote</tspan>
                                </text>
                                <g id="icon_quote_16px" transform="translate(0.000000, 3.000000)" fill-rule="nonzero">
                                    <rect id="矩形" fill="#000000" opacity="0" x="0" y="-2.98427949e-13" width="16" height="16"></rect>
                                    <path d="M12.9953125,9.709375 C13.5140625,9.709375 13.9984375,9.9890625 14.25625,10.4375 L14.25625,10.4375 L15.2296875,12.1265625 C15.4890625,12.575 15.4890625,13.1328125 15.228125,13.58125 L15.228125,13.58125 L14.253125,15.271875 C13.99375,15.721875 13.5109375,16 12.9921875,16 L12.9921875,16 L11.0421875,16 C10.525,16 10.0421875,15.7203125 9.7828125,15.271875 L9.7828125,15.271875 L8.809375,13.5828125 C8.55,13.134375 8.55,12.5765625 8.809375,12.1265625 L8.809375,12.1265625 L9.784375,10.4375 C10.0421875,9.9875 10.525,9.709375 11.04375,9.709375 L11.04375,9.709375 Z M9.109375,9.14823772e-14 C9.771875,9.14823772e-14 10.3703125,0.39375 10.6359375,1.003125 L10.6359375,1.003125 L12.29375,1.003125 C13.1734375,1.003125 13.8890625,1.709375 13.8890625,2.578125 L13.8890625,2.578125 L13.8890625,7.978125 C13.8890625,8.321875 13.609375,8.6015625 13.265625,8.6015625 C12.921875,8.6015625 12.6421875,8.321875 12.6421875,7.978125 L12.6421875,7.978125 L12.6421875,2.5765625 C12.6421875,2.3984375 12.4875,2.2515625 12.296875,2.2515625 L12.296875,2.2515625 L10.6671875,2.2515625 C10.55625,2.54375 10.3578125,2.8078125 10.109375,2.9953125 C9.81875,3.2140625 9.475,3.3296875 9.1109375,3.3296875 L9.1109375,3.3296875 L5.784375,3.3296875 C5.421875,3.3296875 5.078125,3.2140625 4.7875,2.996875 C4.5375,2.809375 4.3390625,2.5453125 4.228125,2.253125 L4.228125,2.253125 L2.5953125,2.253125 C2.4046875,2.253125 2.25,2.3984375 2.25,2.578125 L2.25,2.578125 L2.25,13.9828125 C2.25,14.1609375 2.4046875,14.3078125 2.5953125,14.3078125 L2.5953125,14.3078125 L7.1203125,14.3078125 C7.2875,14.3078125 7.4453125,14.3734375 7.5625,14.490625 C7.6796875,14.609375 7.7453125,14.765625 7.74375,14.9328125 C7.74375,15.2765625 7.4640625,15.55625 7.1203125,15.55625 L7.1203125,15.55625 L2.59375,15.55625 C1.715625,15.55625 1,14.85 1,13.98125 L1,13.98125 L1,2.5765625 C1,1.7078125 1.715625,1.0015625 2.59375,1.0015625 L2.59375,1.0015625 L4.253125,1.0015625 C4.51875,0.39375 5.1171875,9.14823772e-14 5.78125,9.14823772e-14 L5.78125,9.14823772e-14 Z M12.99375,10.9578125 L11.0421875,10.9578125 C10.96875,10.9578125 10.9,10.9984375 10.8609375,11.0640625 L10.8609375,11.0640625 L9.8875,12.7515625 C9.85,12.8151989 9.85,12.8941761 9.8875,12.9578125 L9.8875,12.9578125 L10.8625,14.646875 C10.9015625,14.7109375 10.9703125,14.7515625 11.04375,14.7515625 L11.04375,14.7515625 L12.99375,14.7515625 C13.0671875,14.7515625 13.1359375,14.7109375 13.175,14.6453125 L13.175,14.6453125 L14.15,12.95625 C14.1859375,12.89375 14.1859375,12.8140625 14.15,12.7546875 L14.15,12.7546875 L14.1484375,12.7515625 L13.175,11.0625 C13.1359375,10.9984375 13.0671875,10.9578125 12.99375,10.9578125 L12.99375,10.9578125 Z M5.78125,11.815625 C6.125,11.815625 6.4046875,12.0953125 6.4046875,12.4390625 C6.4046875,12.7828125 6.125,13.0625 5.78125,13.0625 L5.78125,13.0625 L4.95,13.0625 C4.60625,13.0625 4.3265625,12.7828125 4.3265625,12.4390625 C4.3265625,12.0953125 4.60625,11.815625 4.95,11.815625 L4.95,11.815625 Z M7.4453125,8.4859375 C7.6125,8.4859375 7.7703125,8.5515625 7.8875,8.66875 C8.0046875,8.7875 8.06875,8.94375 8.06721542,9.109375 C8.06721542,9.453125 7.7875,9.7328125 7.44375,9.7328125 L7.44375,9.7328125 L4.95,9.7328125 C4.60625,9.7328125 4.3265625,9.453125 4.3265625,9.109375 C4.3265625,8.765625 4.60625,8.4859375 4.95,8.4859375 L4.95,8.4859375 Z M9.940625,5.1609375 C10.284375,5.1609375 10.5640625,5.440625 10.5640625,5.784375 C10.5640625,6.128125 10.284375,6.4078125 9.940625,6.4078125 L9.940625,6.4078125 L4.95,6.4078125 C4.60625,6.4078125 4.3265625,6.128125 4.3265625,5.784375 C4.3265625,5.440625 4.60625,5.1609375 4.95,5.1609375 L4.95,5.1609375 Z M9.1078125,1.2484375 L5.78125,1.2484375 C5.553125,1.2484375 5.3671875,1.434375 5.3671875,1.6625 C5.3671875,1.775 5.4109375,1.8796875 5.4890625,1.95625 C5.5671875,2.034375 5.66875,2.0765625 5.778125,2.0765625 L5.778125,2.0765625 L9.1078125,2.0765625 C9.3375,2.0765625 9.5234375,1.890625 9.5234375,1.6625 C9.5234375,1.434375 9.3359375,1.2484375 9.1078125,1.2484375 L9.1078125,1.2484375 Z" id="形状结合" fill="#4B4B4D"></path>
                                </g>
                            </g>
                        </g>
                    </g>
                </g>
            </g>
        </g>
    </g>
</svg>