<?xml version="1.0" encoding="UTF-8"?>
<svg width="66px" height="26px" viewBox="0 0 66 26" version="1.1" xmlns="http://www.w3.org/2000/svg" xmlns:xlink="http://www.w3.org/1999/xlink">
    <title>数据展示/徽标/视频标签</title>
    <g id="4.-数据展示" stroke="none" stroke-width="1" fill="none" fill-rule="evenodd">
        <g id="4.4-卡片-Card" transform="translate(-898.000000, -2477.000000)">
            <g id="4.3.4-首页community展示卡片" transform="translate(540.000000, 2156.000000)">
                <g id="数据展示/卡片/三栏卡片/首页卡片" transform="translate(40.000000, 142.000000)">
                    <g id="编组" transform="translate(318.000000, 179.000000)">
                        <path d="M3,0 L63,0 C64.6568542,-3.04359188e-16 66,1.34314575 66,3 L66,23 C66,24.6568542 64.6568542,26 63,26 L3,26 C1.34314575,26 1.09108455e-15,24.6568542 0,23 L0,3 C-2.02906125e-16,1.34314575 1.34314575,1.19253761e-15 3,0 Z" id="矩形" fill-opacity="0.4" fill="#000000"></path>
                        <g transform="translate(8.000000, 3.000000)">
                            <text id="01:11" font-family="OpenSans, Open Sans" font-size="13" font-weight="normal" line-spacing="20" fill="#FFFFFF">
                                <tspan x="16" y="14">01:11</tspan>
                            </text>
                            <g transform="translate(0.000000, 4.000000)" fill-rule="nonzero" id="播放icon-14px">
                                <g transform="translate(0.000000, 0.000000)">
                                    <rect id="矩形" fill="#000000" opacity="0" x="0" y="0" width="12" height="12"></rect>
                                    <path d="M10.1952676,7.23273509 L3.45940219,11.7479211 C2.77972196,12.2049475 1.85746621,12.0233088 1.40161172,11.3424567 C1.23520725,11.0975375 1.14848943,10.8092593 1.14848943,10.5162937 L1.14848943,1.48357787 C1.14848943,0.664446012 1.8141073,0 2.63323916,0 C2.92620477,0 3.21448294,0.0867178242 3.45940219,0.25195043 L10.1940957,4.76713648 C10.8749478,5.22416284 11.0565865,6.14641859 10.5995601,6.82727067 C10.4929207,6.98664396 10.3546409,7.12375187 10.1952676,7.23273509 Z" id="路径" fill="#FFFFFF"></path>
                                </g>
                            </g>
                        </g>
                    </g>
                </g>
            </g>
        </g>
    </g>
</svg>