<?xml version="1.0" encoding="UTF-8"?>
<svg width="33px" height="32px" viewBox="0 0 33 32" version="1.1" xmlns="http://www.w3.org/2000/svg" xmlns:xlink="http://www.w3.org/1999/xlink">
    <title>High_Reliability——36px</title>
    <g id="4.-数据展示" stroke="none" stroke-width="1" fill="none" fill-rule="evenodd">
        <g id="4.4-卡片-Card" transform="translate(-1132.000000, -4412.000000)">
            <g id="4.3.8-图标卡片" transform="translate(540.000000, 4294.000000)">
                <g id="数据展示/卡片/三栏卡片/图标卡片2" transform="translate(412.000000, 94.000000)">
                    <g id="icon" transform="translate(156.000000, 0.000000)">
                        <g id="编组" transform="translate(22.000000, 22.000000)">
                            <rect id="矩形" fill-opacity="0" fill="#FFFFFF" x="0" y="0" width="36" height="36"></rect>
                            <path d="M18,34 C9.2,34 2,26.8 2,18 C2,9.2 9.2,2 18,2 L18,2 C20.3,2 22.7,2.5 24.8,3.6 C25.3,3.8 25.5,4.4 25.3,4.9 C25.1,5.4 24.5,5.6 24,5.4 C22.4862201,4.64311005 20.7602615,4.16912498 19.0005642,4.03752477 L19,7 C19,7.6 18.6,8 18,8 C17.4,8 17,7.6 17,7 L17.0003488,4.02233542 C9.99889451,4.42669706 4.4227511,9.99907221 3.9347144,17.0003568 L7,17 C7.6,17 8,17.4 8,18 C8,18.6 7.6,19 7,19 L3.93481442,19.001085 C4.42350232,26.0017228 9.99914317,31.577053 16.999917,32.0652555 L17,29 C17,28.4 17.4,28 18,28 C18.6,28 19,28.4 19,29 L19.001085,32.0651856 C26.0027248,31.5764277 31.5786489,25.9992607 32.0654648,18.997077 L32,19 L32,19 L28,19 C27.4,19 27,18.6 27,18 C27,17.4 27.4,17 28,17 L32,17 L32.0718124,17.0028907 C32.0011895,15.8036012 31.7935002,14.7018006 31.4,13.6 C31.2,13.1 31.5,12.5 32,12.3 C32.5,12.1 33.1,12.4 33.3,12.9 C33.8,14.5 34.1,16.2 34.1,17.9 C34.0012048,26.6927711 26.9724633,33.8262593 18.3173659,33.9968742 L18,34 L18,34 L18,34 Z" id="形状结合" fill="#19191A" fill-rule="nonzero"></path>
                            <path d="M31.4,5.4 C32,6 32.1,6.9 31.7,7.6 L23.8,21.7 C22.8,23.8 20.6,25.1 18.3,25.1 C14.8,25.1 12,22.2 12,18.7 C12,17 12.7,15.4 13.8,14.2 C14.1,13.9 14.4,13.7 14.7,13.4 C14.8,13.3 14.9,13.3 15,13.2 L29.2,5.1 C29.9,4.7 30.8,4.8 31.4,5.4 Z M16.88,14.338 L15.9,14.9 C15.7,15.1 15.4,15.3 15.2,15.5 C14.4,16.3 13.9,17.4 13.9,18.6 C13.9,21 15.8,23 18.2,23 C19.8,23 21.3,22.1 22,20.7 L22.1,20.6 L22.352,20.148 L22.2,20.1 C22.3,19.7 22.4,19.3 22.4,18.9 C22.4,16.6 20.7,14.8 18.6,14.8 C18.2,14.8 17.9,14.7 17.5,14.6 C17.3,14.5 16.9,14.4 16.8,14.4 L16.9,14.4 L16.88,14.338 Z M29.7,7 L19.3306107,12.9353176 C21.5641599,13.1870648 23.4198539,14.761701 24.1577169,16.9192504 L29.7,7 Z" id="形状结合" fill="#C00000" fill-rule="nonzero"></path>
                        </g>
                    </g>
                </g>
            </g>
        </g>
    </g>
</svg>