<?xml version="1.0" encoding="UTF-8"?>
<svg width="36px" height="36px" viewBox="0 0 36 36" version="1.1" xmlns="http://www.w3.org/2000/svg" xmlns:xlink="http://www.w3.org/1999/xlink">
    <title>icon_36px_red_chat</title>
    <g id="4.-数据展示" stroke="none" stroke-width="1" fill="none" fill-rule="evenodd">
        <g id="4.4-卡片-Card" transform="translate(-1492.000000, -4420.000000)">
            <g id="4.3.8-图标卡片" transform="translate(540.000000, 4294.000000)">
                <g id="数据展示/卡片/四栏卡片/图标卡片1" transform="translate(824.000000, 94.000000)">
                    <g id="icon_36px_red_chat" transform="translate(128.000000, 32.000000)">
                        <rect id="矩形" fill="#D8D8D8" opacity="0" x="0" y="0" width="36" height="36"></rect>
                        <path d="M17,4 C24.7319865,4 31,9.14872538 31,15.5 C31,21.8512746 24.7319865,27 17,27 C16.0397565,27 15.1020924,26.9205891 14.1962098,26.7693259 L9.10872552,30.2428292 C8.98881963,30.3247154 8.83923968,30.3504336 8.69886969,30.3132984 C8.43191128,30.2426739 8.27275119,29.9690089 8.34337568,29.7020505 L8.34337568,29.7020505 L9.52703847,25.226405 C5.60463313,23.1886913 3,19.5942015 3,15.5 C3,9.14872538 9.2680135,4 17,4 Z" id="形状结合" stroke="#19191A" stroke-width="1.5" stroke-linejoin="round"></path>
                        <path d="M9.68867951,17 C10.5171066,17 11.1886795,16.3284271 11.1886795,15.5 C11.1886795,14.6715729 10.5171066,14 9.68867951,14 C8.86025238,14 8.18867951,14.6715729 8.18867951,15.5 C8.18867951,16.3284271 8.86025238,17 9.68867951,17 Z" id="椭圆形" fill="#C00000"></path>
                        <path d="M16.6886795,17 C17.5171066,17 18.1886795,16.3284271 18.1886795,15.5 C18.1886795,14.6715729 17.5171066,14 16.6886795,14 C15.8602524,14 15.1886795,14.6715729 15.1886795,15.5 C15.1886795,16.3284271 15.8602524,17 16.6886795,17 Z" id="椭圆形" fill="#C00000"></path>
                        <path d="M23.6886795,17 C24.5171066,17 25.1886795,16.3284271 25.1886795,15.5 C25.1886795,14.6715729 24.5171066,14 23.6886795,14 C22.8602524,14 22.1886795,14.6715729 22.1886795,15.5 C22.1886795,16.3284271 22.8602524,17 23.6886795,17 Z" id="椭圆形" fill="#C00000"></path>
                        <path d="M21,29.4737306 C20.9994524,29.5044398 22.639053,29.0894709 22.9476159,29.0947418 C23.1533245,29.0982557 24.6291099,30.0188794 27.3749723,31.856613 C27.6153608,32 27.9061658,32.037839 28.1765177,31.9612103 C28.649942,31.8270226 28.944883,31.3815647 28.896241,30.9181596 L28.8615723,30.7441142 L27.8731399,27.4039316 C30.1233377,25.9019157 33.0258545,23.7962901 34,19" id="路径" stroke="#19191A" stroke-width="1.5" stroke-linecap="round" stroke-linejoin="round"></path>
                    </g>
                </g>
            </g>
        </g>
    </g>
</svg>