<?xml version="1.0" encoding="utf-8"?>
<!-- Generator: Adobe Illustrator 24.1.3, SVG Export Plug-In . SVG Version: 6.00 Build 0)  -->
<svg version="1.1" id="图层_1" xmlns="http://www.w3.org/2000/svg" xmlns:xlink="http://www.w3.org/1999/xlink" x="0px" y="0px"
	 viewBox="0 0 24 24" style="enable-background:new 0 0 24 24;" xml:space="preserve">
<style type="text/css">
	.st0{fill-rule:evenodd;clip-rule:evenodd;fill:#FFFFFF;fill-opacity:1.000000e-02;}
	.st1{fill:none;stroke:#333333;stroke-linecap:round;stroke-linejoin:round;stroke-miterlimit:2;}
	.st2{fill:none;stroke:#333333;stroke-linejoin:round;stroke-miterlimit:2;}
</style>
<rect x="35.2" class="st0" width="24" height="24"/>
<g transform="translate(5.000000, 8.000000)">
	<path class="st1" d="M-1.5-4h17c0.6,0,1,0.4,1,1v14c0,0.6-0.4,1-1,1h-17c-0.6,0-1-0.4-1-1V-3C-2.5-3.6-2.1-4-1.5-4z"/>
	<circle class="st1" cx="2.2" cy="0.2" r="0.8"/>
	<path class="st2" d="M2.5,4L5,6l3-3.5L16.5,9v2c0,0.6-0.4,1-1,1h-17c-0.6,0-1-0.4-1-1V9L2.5,4z"/>
</g>
</svg>
