<?xml version="1.0" encoding="UTF-8"?>
<svg width="72px" height="72px" viewBox="0 0 72 72" version="1.1" xmlns="http://www.w3.org/2000/svg" xmlns:xlink="http://www.w3.org/1999/xlink">
    <title>双色图标/Transceivers——64x64</title>
    <g id="1.-全局样式" stroke="none" stroke-width="1" fill="none" fill-rule="evenodd">
        <g id="1.8-图标-Icon" transform="translate(-540.000000, -2836.000000)" fill-rule="nonzero">
            <g id="1.8.3-图标类型" transform="translate(540.000000, 2576.000000)">
                <g id="常用图标" transform="translate(0.000000, 50.000000)">
                    <g id="双色图标/Transceivers——64x64" transform="translate(0.000000, 210.000000)">
                        <polygon id="路径" fill-opacity="0" fill="#FFFFFF" points="0 0 72 0 72 72 0 72"></polygon>
                        <path d="M19.125,31.501125 L65.25,31.501125 C65.871,31.501125 66.375,32.005125 66.375,32.626125 L66.375,43.876125 C66.375,44.497125 65.871,45.001125 65.25,45.001125 L19.125,45.001125 C18.504,45.001125 18,44.497125 18,43.876125 L18,32.626125 C18,32.005125 18.504,31.501125 19.125,31.501125 Z" id="路径" fill="#E8E9EB"></path>
                        <path d="M64.125,46.125 L12.375,46.125 L12.375,45 L11.25,45 C11.25,46.23975 10.240875,47.25 9,47.25 L6.75,47.25 C5.509125,47.25 4.5,46.23975 4.5,45 L4.5,27 C4.5,25.759125 5.509125,24.75 6.75,24.75 L9,24.75 C10.240875,24.75 11.25,25.759125 11.25,27 L12.375,27 L12.375,25.875 L64.125,25.875 C65.98575,25.875 67.5,27.38925 67.5,29.25 L67.5,42.75 C67.5,44.61075 65.98575,46.125 64.125,46.125 Z M12.375,29.25 L11.25,29.25 C10.009125,29.25 9,28.23975 9,27 L6.75,27 L6.75,45 L9,45 C9,43.759125 10.009125,42.75 11.25,42.75 L12.375,42.75 L12.375,29.25 Z M65.25,29.25 C65.25,28.629 64.744875,28.125 64.125,28.125 L14.625,28.125 L14.625,43.875 L64.125,43.875 C64.744875,43.875 65.25,43.371 65.25,42.75 L65.25,29.25 Z" id="形状" fill="#19191A"></path>
                        <path d="M19.125,32.626125 C19.7463203,32.626125 20.25,33.1298047 20.25,33.751125 L20.25,38.251125 C20.25,38.8724453 19.7463203,39.376125 19.125,39.376125 C18.5036797,39.376125 18,38.8724453 18,38.251125 L18,33.751125 C18,33.1298047 18.5036797,32.626125 19.125,32.626125 Z" id="路径" fill="#19191A"></path>
                        <path d="M52.875,39.375 L55.125,39.375 C55.7463203,39.375 56.25,39.8786797 56.25,40.5 C56.25,41.1213203 55.7463203,41.625 55.125,41.625 L52.875,41.625 C52.2536797,41.625 51.75,41.1213203 51.75,40.5 C51.75,39.8786797 52.2536797,39.375 52.875,39.375 Z M52.875,30.375 L60.75,30.375 C61.3713203,30.375 61.875,30.8786797 61.875,31.5 C61.875,32.1213203 61.3713203,32.625 60.75,32.625 L52.875,32.625 C52.2536797,32.625 51.75,32.1213203 51.75,31.5 C51.75,30.8786797 52.2536797,30.375 52.875,30.375 Z M57.375,37.125 L52.875,37.125 C52.2536797,37.125 51.75,36.6213203 51.75,36 C51.75,35.3786797 52.2536797,34.875 52.875,34.875 L57.375,34.875 C57.9963203,34.875 58.5,35.3786797 58.5,36 C58.5,36.6213203 57.9963203,37.125 57.375,37.125 Z" id="形状" fill="#19191A"></path>
                    </g>
                </g>
            </g>
        </g>
    </g>
</svg>