<?xml version="1.0" encoding="UTF-8"?>
<svg width="120px" height="120px" viewBox="0 0 120 120" version="1.1" xmlns="http://www.w3.org/2000/svg" xmlns:xlink="http://www.w3.org/1999/xlink">
    <title>delete备份</title>
    <defs>
        <filter color-interpolation-filters="auto" id="filter-1">
            <feColorMatrix in="SourceGraphic" type="matrix" values="0 0 0 0 0.392157 0 0 0 0 0.392157 0 0 0 0 0.400000 0 0 0 1.000000 0"></feColorMatrix>
        </filter>
    </defs>
    <g id="1.-全局样式" stroke="none" stroke-width="1" fill="none" fill-rule="evenodd">
        <g id="1.8-图标-Icon" transform="translate(-776.000000, -726.000000)">
            <g id="1.8.1-画图规范" transform="translate(540.000000, 258.000000)">
                <g id="delete备份" transform="translate(0.000000, 378.000000)" filter="url(#filter-1)">
                    <g transform="translate(236.000000, 90.000000)">
                        <rect id="矩形" fill="#000000" fill-rule="nonzero" opacity="0" x="0" y="0" width="120" height="120"></rect>
                        <path d="M110.144531,28.7929688 L93.9492188,28.7929688 C93.6914062,28.78125 93.4453125,28.7695312 93.1875,28.7695312 L87.9960938,28.7695312 L87.9960938,10.7109375 C87.9960938,4.8046875 83.1914063,0 77.2851563,0 L43.03125,0 C37.125,0 32.3203125,4.8046875 32.3203125,10.7109375 L32.3203125,28.7695312 L27.0585937,28.7695312 C26.8007812,28.7695312 26.5546875,28.78125 26.296875,28.7929688 L9.85546875,28.7929688 C6.890625,28.7929688 4.5,31.1953125 4.5,34.1484375 C4.5,37.1132812 6.90234375,39.5039062 9.85546875,39.5039062 L16.3359375,39.5039062 L16.3359375,109.277344 C16.3359375,115.183594 21.140625,119.988281 27.046875,119.988281 L93.1757812,119.988281 C99.0820312,119.988281 103.886719,115.183594 103.886719,109.277344 L103.886719,39.5039062 L110.15625,39.5039062 C113.121094,39.5039062 115.511719,37.1015625 115.511719,34.1484375 C115.511719,31.1953125 113.097656,28.7929688 110.144531,28.7929688 Z M43.03125,10.7226562 C43.0429688,10.7109375 43.0429688,10.7109375 43.03125,10.7226562 L77.2617187,10.7109375 C77.2617187,10.7109375 77.2734375,10.7109375 77.2734375,10.7226562 L77.2734375,28.7226562 C77.2734375,28.7226562 77.2734375,28.734375 77.2617187,28.734375 L43.0429687,28.734375 C43.0429687,28.734375 43.03125,28.734375 43.03125,28.7226562 L43.03125,10.7226562 Z M93.1875,109.277344 C93.1875,109.289062 93.1757812,109.289062 93.1875,109.277344 L27.0585938,109.289062 C27.0585938,109.289062 27.046875,109.289062 27.046875,109.277344 L27.046875,39.5039062 L93.1757812,39.5039062 L93.1757812,109.265625 L93.1875,109.265625 L93.1875,109.277344 Z" id="形状" fill="#000000" fill-rule="nonzero"></path>
                        <path d="M48.4453125,102.574219 C51.4101562,102.574219 53.8007812,100.171875 53.8007812,97.21875 L53.8007812,51.75 C53.8007812,48.7851563 51.3984375,46.3945313 48.4453125,46.3945313 C45.4804688,46.3945313 43.0898438,48.796875 43.0898438,51.75 L43.0898438,97.21875 C43.0898438,100.160156 45.4804688,102.574219 48.4453125,102.574219 Z M71.7421875,102.574219 C74.7070312,102.574219 77.0976563,100.171875 77.0976563,97.21875 L77.0976563,51.75 C77.0976563,48.7851563 74.6953125,46.3945313 71.7421875,46.3945313 C68.7773438,46.3945313 66.3867188,48.796875 66.3867188,51.75 L66.3867188,97.21875 C66.3867188,100.160156 68.7890625,102.574219 71.7421875,102.574219 Z" id="形状" fill="#000000" fill-rule="nonzero"></path>
                    </g>
                </g>
            </g>
        </g>
    </g>
</svg>