<?xml version="1.0" encoding="UTF-8"?>
<svg width="36px" height="36px" viewBox="0 0 36 36" version="1.1" xmlns="http://www.w3.org/2000/svg" xmlns:xlink="http://www.w3.org/1999/xlink">
    <title>常用图标/share-20px</title>
    <g id="1.-全局样式" stroke="none" stroke-width="1" fill="none" fill-rule="evenodd">
        <g id="1.8-图标-Icon" transform="translate(-844.000000, -2716.000000)" fill-rule="nonzero">
            <g id="1.8.3-图标类型" transform="translate(540.000000, 2576.000000)">
                <g id="常用图标" transform="translate(0.000000, 50.000000)">
                    <g id="icon" transform="translate(0.000000, 90.000000)">
                        <g id="常用图标/share-20px" transform="translate(304.000000, 0.000000)">
                            <rect id="矩形" fill="#000000" opacity="0" x="0" y="0" width="36" height="36"></rect>
                            <path d="M15.1523438,0.1828125 C15.8871094,0.1828125 16.621875,0.73125 16.621875,1.65234375 C16.621875,2.5734375 16.0699219,2.9390625 15.3351563,2.9390625 L15.3351563,2.9390625 L4.6828125,2.9390625 C3.58242187,2.9390625 2.84765625,3.85664063 2.84765625,4.77421875 L2.84765625,4.77421875 L2.84765625,31.2257813 C2.84765625,32.3261719 3.76523438,33.0609375 4.6828125,33.0609375 L4.6828125,33.0609375 L31.134375,33.0609375 C32.2347656,33.0609375 32.9695313,32.1433594 32.9695313,31.2257813 L32.9695313,31.2257813 L32.9695313,20.0214844 C32.9695313,19.2867188 33.5214844,18.5519531 34.4390625,18.5519531 C35.3566406,18.5519531 35.9085938,19.1003906 35.9085938,20.0214844 L35.9085938,20.0214844 L35.9085938,31.2257813 C35.9085938,33.9785156 33.8871094,36 31.3171875,36 L31.3171875,36 L4.6828125,36 C2.11289063,36 0.09140625,33.9785156 0.09140625,31.4085938 L0.09140625,31.4085938 L0.09140625,4.77421875 C0.09140625,2.20429688 2.11289063,0.1828125 4.6828125,0.1828125 L4.6828125,0.1828125 Z M32.6003906,0 C34.4390625,0 35.9085938,1.28671875 35.9085938,3.3046875 L35.9085938,3.3046875 L35.9085938,12.8566406 C35.9085938,13.7742187 35.3566406,14.3261719 34.4390625,14.3261719 C33.7042969,14.3261719 32.9695312,13.7742187 32.9695312,12.8566406 L32.9695312,12.8566406 L32.9695312,5.14335937 L19.0089844,19.1039063 C18.6433594,19.2867187 18.2742187,19.4695312 17.9085937,19.4695312 C17.5429687,19.4695312 17.1738281,19.2867188 16.9910156,19.1039063 C16.4390625,18.5519531 16.4390625,17.634375 16.9910156,17.0824219 L16.9910156,17.0824219 L31.134375,2.9390625 L22.5,2.9390625 C21.7652344,2.9390625 21.0304687,2.38710937 21.0304687,1.46953125 C21.0304687,0.551953125 21.5824219,0 22.5,0 L22.5,0 Z" id="形状结合" fill="#4B4B4D"></path>
                        </g>
                    </g>
                </g>
            </g>
        </g>
    </g>
</svg>