<?xml version="1.0" encoding="UTF-8"?>
<svg width="156px" height="156px" viewBox="0 0 156 156" version="1.1" xmlns="http://www.w3.org/2000/svg" xmlns:xlink="http://www.w3.org/1999/xlink">
    <title>编组 4</title>
    <g id="1.-全局样式" stroke="none" stroke-width="1" fill="none" fill-rule="evenodd">
        <g id="1.8-图标-Icon" transform="translate(-539.000000, -1019.000000)">
            <g id="1.8.2-轮廓线与模版" transform="translate(540.000000, 926.000000)">
                <g id="编组-4" transform="translate(0.000000, 94.000000)">
                    <g id="组_196" stroke="#F7F7F7" stroke-width="0.641666667">
                        <line x1="11.7626873" y1="9.51073698" x2="11.7626873" y2="144.51591" id="形状_1026"></line>
                        <line x1="19.2691885" y1="4.25618616" x2="19.2691885" y2="149.882309" id="形状_1026_拷贝"></line>
                        <line x1="26.7756897" y1="1.25358569" x2="26.7756897" y2="152.773714" id="形状_1026_拷贝_2"></line>
                        <line x1="34.1523284" y1="0" x2="34.1523284" y2="153.883274" id="形状_1026_拷贝_3"></line>
                        <line x1="41.6610815" y1="0" x2="41.6610815" y2="153.883274" id="形状_1026_拷贝_3-2"></line>
                        <line x1="49.1675826" y1="0" x2="49.1675826" y2="153.883274" id="形状_1026_拷贝_3-3"></line>
                        <line x1="56.6740838" y1="0" x2="56.6740838" y2="153.883274" id="形状_1026_拷贝_4"></line>
                        <line x1="64.180585" y1="0" x2="64.180585" y2="153.883274" id="形状_1026_拷贝_4-2"></line>
                        <line x1="71.6870861" y1="0" x2="71.6870861" y2="153.883274" id="形状_1026_拷贝_4-3"></line>
                        <line x1="79.1935873" y1="0" x2="79.1935873" y2="153.883274" id="形状_1026_拷贝_4-4"></line>
                        <line x1="86.7000885" y1="0" x2="86.7000885" y2="153.883274" id="形状_1026_拷贝_4-5"></line>
                        <line x1="94.2065896" y1="0" x2="94.2065896" y2="153.883274" id="形状_1026_拷贝_4-6"></line>
                        <line x1="101.713091" y1="0" x2="101.713091" y2="153.883274" id="形状_1026_拷贝_7"></line>
                        <line x1="109.219592" y1="0" x2="109.219592" y2="153.883274" id="形状_1026_拷贝_7-2"></line>
                        <line x1="116.726093" y1="0" x2="116.726093" y2="153.883274" id="形状_1026_拷贝_7-3"></line>
                        <line x1="124.360205" y1="0.596113964" x2="124.360205" y2="153.465582" id="形状_1026_拷贝_7-4"></line>
                        <line x1="131.866706" y1="2.87288516" x2="131.866706" y2="151.232095" id="形状_1026_拷贝_7-5"></line>
                        <line x1="139.373207" y1="7.12758092" x2="139.373207" y2="146.879708" id="形状_1026_拷贝_7-6"></line>
                        <line x1="145.753733" y1="13.2639876" x2="8.3847618" y2="13.2639876" id="形状_1026-2"></line>
                        <line x1="150.632959" y1="20.7704887" x2="3.50553604" y2="20.7704887" id="形状_1026_拷贝-2"></line>
                        <line x1="153.260234" y1="28.2769899" x2="0.878260636" y2="28.2769899" id="形状_1026_拷贝_2-2"></line>
                        <line x1="153.883274" y1="35.6558805" x2="0" y2="35.6558805" id="形状_1026_拷贝_3-4"></line>
                        <line x1="153.883274" y1="43.1623817" x2="0" y2="43.1623817" id="形状_1026_拷贝_3-5"></line>
                        <line x1="153.883274" y1="50.6688829" x2="0" y2="50.6688829" id="形状_1026_拷贝_3-6"></line>
                        <line x1="153.883274" y1="58.175384" x2="0" y2="58.175384" id="形状_1026_拷贝_4-7"></line>
                        <line x1="153.883274" y1="65.6818852" x2="0" y2="65.6818852" id="形状_1026_拷贝_4-8"></line>
                        <line x1="153.883274" y1="73.1883864" x2="0" y2="73.1883864" id="形状_1026_拷贝_4-9"></line>
                        <line x1="153.883274" y1="80.6948875" x2="0" y2="80.6948875" id="形状_1026_拷贝_4-10"></line>
                        <line x1="153.883274" y1="88.2013887" x2="0" y2="88.2013887" id="形状_1026_拷贝_4-11"></line>
                        <line x1="153.883274" y1="95.7078899" x2="0" y2="95.7078899" id="形状_1026_拷贝_4-12"></line>
                        <line x1="153.883274" y1="103.214391" x2="0" y2="103.214391" id="形状_1026_拷贝_7-7"></line>
                        <line x1="153.883274" y1="110.720892" x2="0" y2="110.720892" id="形状_1026_拷贝_7-8"></line>
                        <line x1="153.883274" y1="118.227393" x2="0" y2="118.227393" id="形状_1026_拷贝_7-9"></line>
                        <line x1="153.260234" y1="125.861505" x2="0.962917238" y2="125.861505" id="形状_1026_拷贝_7-10"></line>
                        <line x1="150.561005" y1="133.368006" x2="3.50553604" y2="133.368006" id="形状_1026_拷贝_7-11"></line>
                        <line x1="145.753733" y1="140.874507" x2="8.3847618" y2="140.874507" id="形状_1026_拷贝_7-12"></line>
                    </g>
                    <path d="M36.1479317,0.116726093 L117.968794,0.116726093 C137.86828,0.116726093 154,16.2484463 154,36.1479317 L154,117.968794 C154,137.86828 137.86828,154 117.968794,154 L36.1479317,154 C16.2484463,154 0.116726093,137.86828 0.116726093,117.968794 L0.116726093,36.1479317 C0.116726093,16.2484463 16.2484463,0.116726093 36.1479317,0.116726093 Z" id="圆角矩形_1026" stroke="#CCCCCC" stroke-width="0.641666667"></path>
                    <rect id="矩形_1016" stroke="#CCCCCC" stroke-width="0.641666667" x="19.141578" y="18.7662529" width="114.474143" height="114.474143"></rect>
                    <rect id="矩形_1016_拷贝" stroke="#CCCCCC" stroke-width="0.641666667" x="25.897429" y="11.6350768" width="100.962441" height="129.487145"></rect>
                    <rect id="矩形_1016_拷贝_2" stroke="#CCCCCC" stroke-width="0.641666667" x="11.6350768" y="25.897429" width="129.487145" height="100.962441"></rect>
                    <circle id="椭圆_1020" stroke="#CCCCCC" stroke-width="0.641666667" cx="76.3786494" cy="76.3786494" r="64.7435726"></circle>
                    <polygon id="形状_1021" stroke="#CCCCCC" stroke-width="0.641666667" points="76.1909868 11.6350768 20.2675531 108.093617 132.489746 108.093617"></polygon>
                    <polygon id="矩形_1412" fill="#CCCCCC" points="141.620509 8.6917777 141.810581 8.88375021 9.13911211 141.556848 8.94741113 141.364876"></polygon>
                    <polygon id="矩形_1412_拷贝" stroke="#CCCCCC" stroke-width="0.641666667" points="12.9507101 9.0078014 12.761052 9.19745952 145.059514 141.497547 145.250798 141.307889"></polygon>
                    <path d="M115.607249,49.485483 L90.1575829,49.485483 C90.1530995,49.4860907 90.1485546,49.4860907 90.1440712,49.485483 C90.1336539,49.4798832 90.1250579,49.4714174 90.1192998,49.4610868 C90.1192998,49.4610868 90.1192998,49.4573336 90.1192998,49.4475751 L90.1192998,36.3689982 C90.1085437,26.6517292 82.2338235,18.777009 72.5165545,18.7656949 C67.9732494,18.7308683 63.5778434,20.3794966 60.1784939,23.3940109 C56.9131659,26.2735047 54.5752661,30.3198842 53.4151363,35.0992735 L43.8908876,70.091204 C43.8422994,70.2727356 43.803708,70.4567964 43.7752875,70.6425565 L43.737755,70.6425565 L29.3432884,70.6425565 C23.7115759,70.6493819 19.147989,75.2133046 19.141578,80.8450176 L19.141578,116.283585 C19.1488161,121.914712 23.7121612,126.477721 29.3432884,126.484545 L53.9120667,126.484545 L53.9120667,124.570387 C53.9548538,124.570387 53.9968902,126.45039 54.0393019,126.45039 L109.184311,126.45039 C112.335205,126.467005 115.335393,125.103171 117.394547,122.718158 C119.066745,120.760991 120.245305,118.431414 120.831399,115.924774 L133.066996,68.4360205 C133.182215,68.005104 133.240022,67.5609305 133.240022,67.1148763 C133.228642,57.3818297 125.340298,49.494997 115.607249,49.485483 Z M43.7096056,116.282084 L29.3530468,116.282084 C29.3496689,116.279081 29.346291,114.399078 29.3432884,114.396075 L29.3432884,80.8525241 C29.3461613,80.8491343 29.3494385,80.8461092 29.3530468,80.8435163 L43.7096056,80.8435163 L43.7096056,116.282084 Z M110.967856,113.320018 C110.96035,113.347042 110.953969,111.497815 110.947213,111.525214 C110.592156,112.939814 109.87491,116.248304 109.186188,116.248304 L54.0393019,116.248304 C53.9811265,116.248304 53.9120667,114.302619 53.9120667,114.244819 L53.9120667,72.1198359 L63.2798048,37.7066567 C63.2940672,37.6563631 63.3068282,37.6053189 63.3195893,37.55465 C64.6058283,32.1781185 68.0438058,28.9683387 72.5150532,28.9683387 C76.6006095,28.9724763 79.911575,32.2834419 79.9157127,36.3689982 L79.9157127,49.4483258 C79.9223318,55.1018889 84.5040193,59.6832406 90.1575829,59.6894453 L115.607249,59.6894453 C119.480447,59.6939318 122.702043,62.6698109 123.013163,66.5304952 L110.967856,113.320018 Z" id="形状_1026-3" fill="#646466"></path>
                </g>
            </g>
        </g>
    </g>
</svg>