<?xml version="1.0" encoding="UTF-8"?>
<svg width="154px" height="183px" viewBox="0 0 154 183" version="1.1" xmlns="http://www.w3.org/2000/svg" xmlns:xlink="http://www.w3.org/1999/xlink">
    <title>编组 2</title>
    <g id="1.-全局样式" stroke="none" stroke-width="1" fill="none" fill-rule="evenodd">
        <g id="1.8-图标-Icon" transform="translate(-540.000000, -1394.000000)">
            <g id="上传规范" transform="translate(540.000000, 1254.000000)">
                <g id="编组-3" transform="translate(0.000000, 50.000000)">
                    <g id="编组-2" transform="translate(0.000000, 90.000000)">
                        <path d="M130.200841,45.352329 L95.8511296,45.352329 C95.8450784,45.3531471 95.838944,45.3531471 95.8328927,45.352329 C95.8188324,45.3447911 95.8072303,45.3333955 95.7994584,45.3194896 C95.7994584,45.3194896 95.7994584,45.3144374 95.7994584,45.3013016 L95.7994584,27.6963592 C95.7849408,14.6160401 85.1563392,4.01595759 72.040828,4.00072784 C65.9086761,3.95384812 59.9761454,6.17305021 55.3880037,10.2308579 C50.9807525,14.106916 47.8252619,19.5537071 46.2594212,25.9871955 L33.4044317,73.0894851 C33.3388516,73.3338429 33.2867644,73.5816054 33.2484049,73.8316552 L33.1977469,73.8316552 L13.7693675,73.8316552 C6.16817948,73.8408429 0.00865308582,79.9842938 0,87.5650866 L0,135.26859 C0.00976931958,142.848593 6.16896945,148.990815 13.7693675,149 L46.9301339,149 L46.9301339,146.423371 C46.9878841,146.423371 47.0446211,148.954025 47.1018648,148.954025 L121.531727,148.954025 C125.784524,148.976391 129.833914,147.140547 132.613178,143.930104 C134.870163,141.295581 136.460879,138.15976 137.251936,134.785598 L153.766464,70.861459 C153.921977,70.2814067 154,69.6835091 154,69.0830799 C153.98464,55.9815228 143.33765,45.3651357 130.200841,45.352329 Z M33.1597533,135.266569 L13.7825386,135.266569 C13.7779793,135.262527 13.7734201,132.731873 13.7693675,132.727831 L13.7693675,87.575191 C13.773245,87.5706281 13.7776683,87.566556 13.7825386,87.5630657 L33.1597533,87.5630657 L33.1597533,135.266569 Z M123.938998,131.279362 C123.928866,131.315738 123.920254,128.826512 123.911136,128.863394 C123.431911,130.767573 122.463835,135.221099 121.53426,135.221099 L47.1018648,135.221099 C47.0233448,135.221099 46.9301339,132.602031 46.9301339,132.524227 L46.9301339,75.8202064 L59.5738793,29.496968 C59.5931293,29.4292684 59.6103531,29.3605583 59.6275768,29.2923534 C61.3636286,22.0550579 66.0039069,17.7344051 72.0388017,17.7344051 C77.5531246,17.7399748 82.0219734,22.1968326 82.0275581,27.6963592 L82.0275581,45.3023121 C82.036492,52.9125172 88.2204489,59.0794291 95.8511296,59.0877812 L130.200841,59.0877812 C135.428541,59.0938205 139.776767,63.0996216 140.196689,68.2964503 L123.938998,131.279362 Z" id="形状_1026-3" fill="#646466"></path>
                        <rect id="矩形" stroke="#19191A" x="0.5" y="0.5" width="153" height="153"></rect>
                        <text id="1024x1024px" font-family="MicrosoftYaHei, Microsoft YaHei" font-size="14" font-weight="normal" fill="#646466">
                            <tspan x="33.09375" y="179">1024x1024px</tspan>
                        </text>
                    </g>
                </g>
            </g>
        </g>
    </g>
</svg>