<?xml version="1.0" encoding="UTF-8"?>
<svg width="72px" height="72px" viewBox="0 0 72 72" version="1.1" xmlns="http://www.w3.org/2000/svg" xmlns:xlink="http://www.w3.org/1999/xlink">
    <title>双色图标/Rack&amp;Enclosures——64x64</title>
    <g id="1.-全局样式" stroke="none" stroke-width="1" fill="none" fill-rule="evenodd">
        <g id="1.8-图标-Icon" transform="translate(-652.000000, -2836.000000)" fill-rule="nonzero">
            <g id="1.8.3-图标类型" transform="translate(540.000000, 2576.000000)">
                <g id="常用图标" transform="translate(0.000000, 50.000000)">
                    <g id="双色图标/Rack&amp;Enclosures——64x64" transform="translate(112.000000, 210.000000)">
                        <polygon id="路径" fill-opacity="0" fill="#FFFFFF" points="0 0 72 0 72 72 0 72"></polygon>
                        <polygon id="路径" fill-opacity="0" fill="#FFFFFF" points="24.75 19.125 46.125 19.125 46.125 51.75 24.75 51.75"></polygon>
                        <path d="M28.125,22.5 L47.25,22.5 C47.871,22.5 48.375,23.004 48.375,23.625 L48.375,51.75 C48.375,52.371 47.871,52.875 47.25,52.875 L28.125,52.875 C27.502875,52.875 27,52.371 27,51.75 L27,23.625 C27,23.004 27.502875,22.5 28.125,22.5 Z" id="路径" fill="#E8E9EB"></path>
                        <path d="M46.125,52.875 L24.75,52.875 C23.506875,52.875 22.5,51.8986364 22.5,50.6931819 L22.5,19.0568181 C22.5,17.8513636 23.506875,16.875 24.75,16.875 L46.125,16.875 C47.367,16.875 48.375,17.8513636 48.375,19.0568181 L48.375,50.6931819 C48.375,51.8986364 47.367,52.875 46.125,52.875 Z M46.125,19.125 L24.75,19.125 L24.75,50.625 L46.125,50.625 L46.125,19.125 Z" id="形状" fill="#19191A"></path>
                        <path d="M41.625,55.125 L41.625,52.875 L43.875,52.875 L43.875,55.125 L41.625,55.125 Z M28.125,52.875 L30.375,52.875 L30.375,55.125 L28.125,55.125 L28.125,52.875 Z" id="形状" fill="#19191A"></path>
                        <path d="M37.125,45 L37.125,42.75 L43.875,42.75 L43.875,45 L37.125,45 Z M37.125,33.75 L43.875,33.75 L43.875,36 L37.125,36 L37.125,33.75 Z M37.125,24.75 L43.875,24.75 L43.875,27 L37.125,27 L37.125,24.75 Z M30.375,42.75 L32.625,42.75 L32.625,45 L30.375,45 L30.375,42.75 Z M30.375,24.75 L32.625,24.75 L32.625,27 L30.375,27 L30.375,24.75 Z M27,42.75 L29.25,42.75 L29.25,45 L27,45 L27,42.75 Z M27,24.75 L29.25,24.75 L29.25,27 L27,27 L27,24.75 Z" id="形状" fill="#19191A"></path>
                        <path d="M30.375,36 L30.375,33.75 L32.625,33.75 L32.625,36 L30.375,36 Z M27,33.75 L29.25,33.75 L29.25,36 L27,36 L27,33.75 Z" id="形状" fill="#19191A"></path>
                    </g>
                </g>
            </g>
        </g>
    </g>
</svg>