<?xml version="1.0" encoding="UTF-8"?>
<svg width="72px" height="72px" viewBox="0 0 72 72" version="1.1" xmlns="http://www.w3.org/2000/svg" xmlns:xlink="http://www.w3.org/1999/xlink">
    <title>双色图标/wdm——64x64</title>
    <g id="1.-全局样式" stroke="none" stroke-width="1" fill="none" fill-rule="evenodd">
        <g id="1.8-图标-Icon" transform="translate(-764.000000, -2836.000000)" fill-rule="nonzero">
            <g id="1.8.3-图标类型" transform="translate(540.000000, 2576.000000)">
                <g id="常用图标" transform="translate(0.000000, 50.000000)">
                    <g id="双色图标/wdm——64x64" transform="translate(224.000000, 210.000000)">
                        <polygon id="路径" fill-opacity="0" fill="#FFFFFF" points="0 0 72 0 72 72 0 72"></polygon>
                        <path d="M12.375,36 L64.125,36 C64.746,36 65.25,36.504 65.25,37.125 L65.25,43.875 C65.25,44.496 64.746,45 64.125,45 L12.375,45 C11.754,45 11.25,44.496 11.25,43.875 L11.25,37.125 C11.25,36.504 11.754,36 12.375,36 Z" id="路径" fill="#E8E9EB"></path>
                        <path d="M61.873875,46.123875 L10.123875,46.123875 C8.263125,46.123875 6.748875,44.609625 6.748875,42.748875 L6.748875,34.873875 C6.748875,33.013125 8.263125,31.498875 10.123875,31.498875 L11.90925,31.498875 L17.34075,26.067375 C18.19125,25.216875 19.32075,24.748875 20.52225,24.748875 L51.476625,24.748875 C52.678125,24.748875 53.807625,25.216875 54.658125,26.067375 L60.089625,31.498875 L61.873875,31.498875 C63.73575,31.498875 65.25,33.013125 65.25,34.873875 L65.25,42.748875 C65.25,44.609625 63.73575,46.123875 61.873875,46.123875 Z M53.067375,27.658125 C52.642125,27.232875 52.07625,26.998875 51.476625,26.998875 L20.52225,26.998875 C19.9215,26.998875 19.35675,27.232875 18.9315,27.658125 L15.089625,31.498875 L56.908125,31.498875 L53.067375,27.658125 Z M62.998875,34.873875 C62.998875,34.252875 62.494875,33.748875 61.873875,33.748875 L10.123875,33.748875 C9.504,33.748875 8.998875,34.252875 8.998875,34.873875 L8.998875,42.748875 C8.998875,43.369875 9.504,43.873875 10.123875,43.873875 L61.873875,43.873875 C62.494875,43.873875 62.998875,43.369875 62.998875,42.748875 L62.998875,34.873875 Z" id="形状" fill="#19191A"></path>
                        <path d="M50.623875,39.373875 L52.873875,39.373875 L52.873875,41.623875 L50.623875,41.623875 L50.623875,39.373875 Z M50.623875,35.998875 L52.873875,35.998875 L52.873875,38.248875 L50.623875,38.248875 L50.623875,35.998875 Z M46.123875,39.373875 L48.373875,39.373875 L48.373875,41.623875 L46.123875,41.623875 L46.123875,39.373875 Z M46.123875,35.998875 L48.373875,35.998875 L48.373875,38.248875 L46.123875,38.248875 L46.123875,35.998875 Z M19.123875,39.373875 L21.373875,39.373875 L21.373875,41.623875 L19.123875,41.623875 L19.123875,39.373875 Z M19.123875,35.998875 L21.373875,35.998875 L21.373875,38.248875 L19.123875,38.248875 L19.123875,35.998875 Z" id="形状" fill="#19191A"></path>
                        <path d="M57.936375,41.623875 C56.386125,41.623875 55.123875,40.36275 55.123875,38.811375 C55.123875,37.26 56.386125,35.998875 57.936375,35.998875 C59.48775,35.998875 60.748875,37.26 60.748875,38.811375 C60.748875,40.36275 59.48775,41.623875 57.936375,41.623875 Z M57.936375,37.123875 C57.006,37.123875 56.248875,37.881 56.248875,38.811375 C56.248875,39.74175 57.006,40.498875 57.936375,40.498875 C58.86675,40.498875 59.623875,39.74175 59.623875,38.811375 C59.623875,37.881 58.86675,37.123875 57.936375,37.123875 Z M14.0625,41.623875 C12.511125,41.623875 11.248875,40.36275 11.248875,38.811375 C11.248875,37.26 12.511125,35.998875 14.0625,35.998875 C15.61275,35.998875 16.875,37.26 16.875,38.811375 C16.875,40.36275 15.61275,41.623875 14.0625,41.623875 Z M15.748875,38.811375 C15.748875,37.881 14.992875,37.123875 14.0625,37.123875 C13.131,37.123875 12.373875,37.881 12.373875,38.811375 C12.373875,39.74175 13.131,40.498875 14.0625,40.498875 C14.992875,40.498875 15.748875,39.74175 15.748875,38.811375 Z" id="形状" fill="#19191A"></path>
                    </g>
                </g>
            </g>
        </g>
    </g>
</svg>