<?xml version="1.0" encoding="UTF-8"?>
<svg width="16px" height="16px" viewBox="0 0 16 16" version="1.1" xmlns="http://www.w3.org/2000/svg" xmlns:xlink="http://www.w3.org/1999/xlink">
    <title>路径</title>
    <g id="5.-反馈" stroke="none" stroke-width="1" fill="none" fill-rule="evenodd" fill-opacity="0.6">
        <g id="5.3-加载-Load" transform="translate(-591.000000, -481.000000)" fill="#FFFFFF" fill-rule="nonzero">
            <g id="按钮/主按钮/红色实心Processing" transform="translate(540.000000, 470.000000)">
                <g id="loading" transform="translate(51.000000, 11.000000)">
                    <path d="M8,16 C6.9203125,16 5.871875,15.7890625 4.8859375,15.3703125 C3.9328125,14.96875 3.078125,14.390625 2.34375,13.65625 C1.609375,12.921875 1.03125,12.0671875 0.6296875,11.1140625 C0.2109375,10.128125 0,9.0796875 0,8 C0,6.9203125 0.2109375,5.871875 0.6296875,4.8859375 C1.03125,3.9328125 1.609375,3.078125 2.34375,2.34375 C3.078125,1.609375 3.9328125,1.03125 4.8859375,0.6296875 C5.871875,0.2109375 6.9203125,0 8,0 C8.3203125,0 8.5796875,0.259375 8.5796875,0.5796875 C8.5796875,0.9 8.3203125,1.159375 8,1.159375 C7.0765625,1.159375 6.18125,1.340625 5.3375,1.696875 C4.5234375,2.040625 3.790625,2.534375 3.1625,3.1625 C2.534375,3.790625 2.040625,4.521875 1.696875,5.3375 C1.340625,6.1796875 1.159375,7.0765625 1.159375,8 C1.159375,8.9234375 1.340625,9.81875 1.696875,10.6625 C2.040625,11.4765625 2.534375,12.209375 3.1625,12.8375 C3.790625,13.465625 4.521875,13.959375 5.3375,14.303125 C6.18125,14.659375 7.0765625,14.840625 8,14.840625 C8.9234375,14.840625 9.81875,14.659375 10.6625,14.303125 C11.4765625,13.959375 12.209375,13.465625 12.8375,12.8375 C13.465625,12.209375 13.959375,11.478125 14.303125,10.6625 C14.659375,9.8203125 14.840625,8.9234375 14.840625,8 C14.840625,7.6796875 15.1,7.4203125 15.4203125,7.4203125 C15.740625,7.4203125 16,7.6796875 16,8 C16,9.0796875 15.7890625,10.128125 15.3703125,11.1140625 C14.96875,12.0671875 14.390625,12.921875 13.65625,13.65625 C12.921875,14.390625 12.065625,14.9671875 11.1140625,15.3703125 C10.128125,15.7890625 9.0796875,16 8,16 Z" id="路径"></path>
                </g>
            </g>
        </g>
    </g>
</svg>