<?xml version="1.0" encoding="UTF-8"?>
<svg width="39px" height="35px" viewBox="0 0 39 35" version="1.1" xmlns="http://www.w3.org/2000/svg" xmlns:xlink="http://www.w3.org/1999/xlink">
    <title>Steps-icon3-56x56</title>
    <defs>
        <polygon id="path-1" points="0 0 38.6998 0 38.6998 23.4 0 23.4"></polygon>
    </defs>
    <g id="2.-导航" stroke="none" stroke-width="1" fill="none" fill-rule="evenodd">
        <g id="2.2-内容导航-Content-Navigation" transform="translate(-549.000000, -2026.000000)">
            <g id="2.2.3-步骤条" transform="translate(540.000000, 1228.000000)">
                <g id="纵向步骤条" transform="translate(0.000000, 553.000000)">
                    <g id="导航/步骤条/竖向步骤条" transform="translate(0.000000, 90.000000)">
                        <g id="编组" transform="translate(0.000000, 144.000000)">
                            <rect id="矩形" fill="#FFFFFF" opacity="0" x="0" y="0" width="56" height="56"></rect>
                            <rect id="矩形" fill="#CCCCCC" x="10" y="34" width="37" height="7" rx="1"></rect>
                            <g transform="translate(9.000000, 17.799800)">
                                <mask id="mask-2" fill="white">
                                    <use xlink:href="#path-1"></use>
                                </mask>
                                <g id="Clip-3"></g>
                                <path d="M35.8998,23.4 L2.5998,23.4 C1.1998,23.4 -0.0002,22.2 -0.0002,20.7 L-0.0002,2.7 C-0.0002,1.2 1.1998,0 2.5998,0 L8.1998,0 L8.1998,1.5 L2.5998,1.5 C1.9998,1.5 1.4998,2 1.4998,2.7 L1.4998,20.8 C1.4998,21.4 1.9998,22.001 2.6998,22.001 L36.0008,22.001 C36.5998,22.001 37.1998,21.501 37.1998,20.8 L37.1998,2.7 C37.1998,2.1 36.6998,1.5 36.0008,1.5 L30.3998,1.5 L30.3998,0 L36.0008,0 C37.5008,0 38.6998,1.2 38.6998,2.7 L38.6998,20.8 C38.5008,22.2 37.2998,23.4 35.8998,23.4" id="Fill-2" fill="#19191A" mask="url(#mask-2)"></path>
                            </g>
                            <polygon id="Fill-4" fill="#19191A" points="27.4999 40.4 29.1999 40.4 29.1999 44.3 36.7999 44.3 36.7999 46 19.8999 46 19.8999 44.3 27.4999 44.3"></polygon>
                            <path d="M36.0999,18.1 L29.6999,24.7 C29.4999,25 29.1999,25.2 28.8999,25.3 C28.6999,25.4 28.3999,25.4 28.1999,25.4 C27.6999,25.4 27.1999,25.2 26.7999,24.8 L23.6999,21.5 C23.3999,21.2 23.3999,20.6 23.6999,20.3 C23.9999,20 24.5999,20 24.8999,20.3 L27.9999,23.6 L28.0999,23.7 L28.1999,23.7 C28.2999,23.7 28.2999,23.6 28.2999,23.6 L28.3999,23.5 L34.7999,16.9 C35.0999,16.6 35.6999,16.5 35.9999,16.9 C36.4999,17.2 36.4999,17.8 36.0999,18.1 L36.0999,18.1 Z" id="路径" fill="#C00000"></path>
                            <path d="M29.1999,32.7 L28.2999,33.1 L27.3999,32.7 C27.0999,32.5 18.7999,28.8 18.7999,21.6 L18.7999,17.1 C18.7999,15.3 20.0999,13.7 21.8999,13.4 C23.4999,13.1 24.9999,12.2 25.5999,11.8 C26.3999,11.3 27.2999,11 28.1999,11 C29.0999,11 30.0999,11.3 30.8999,11.8 C31.4999,12.2 32.9999,13.1 34.5999,13.4 C35.0999,13.5 35.3999,13.9 35.2999,14.4 C35.1999,14.9 34.7999,15.2 34.2999,15.1 C32.3999,14.8 30.5999,13.7 29.9999,13.2 C28.9999,12.5 27.5999,12.5 26.5999,13.2 C25.8999,13.7 24.1999,14.7 22.2999,15.1 C21.2999,15.3 20.5999,16.1 20.5999,17.1 L20.5999,21.6 C20.5999,27.7 27.7999,31 28.0999,31.2 L28.2999,31.3 L28.4999,31.2 C28.7999,31.1 35.9999,27.8 35.9999,21.6 L35.9999,20.6 C35.9999,20.1 36.3999,19.7 36.8999,19.7 C37.3999,19.7 37.7999,20.1 37.7999,20.6 L37.7999,21.6 C37.7999,28.8 29.4999,32.5 29.1999,32.7 L29.1999,32.7 Z" id="路径" fill="#19191A"></path>
                        </g>
                    </g>
                </g>
            </g>
        </g>
    </g>
</svg>