<?xml version="1.0" encoding="UTF-8"?>
<svg width="14px" height="16px" viewBox="0 0 14 16" version="1.1" xmlns="http://www.w3.org/2000/svg" xmlns:xlink="http://www.w3.org/1999/xlink">
    <title>鼠标手</title>
    <g id="2.-导航" stroke="none" stroke-width="1" fill="none" fill-rule="evenodd">
        <g id="2.2-内容导航-Content-Navigation" transform="translate(-639.000000, -404.000000)" fill-rule="nonzero">
            <g id="2.2.1-面包屑" transform="translate(540.000000, 258.000000)">
                <g id="导航/面包屑/基础面包屑hover" transform="translate(0.000000, 134.000000)">
                    <g id="鼠标手" transform="translate(98.000000, 12.000000)">
                        <rect id="矩形" fill="#000000" opacity="0" x="0" y="0" width="16" height="16"></rect>
                        <polygon id="路径" fill="#FFFFFF" points="6.1890625 13.7296875 5.46875 13.7296875 5.46875 12.2890625 4.7484375 12.2890625 4.7484375 10.8484375 4.028125 10.8484375 4.028125 9.4078125 3.3078125 9.4078125 3.3078125 8.6515625 2.5875 8.6515625 2.5875 7.2265625 4.0203125 7.2265625 4.0203125 7.946875 4.7484375 7.946875 4.7484375 10.146875 5.46875 10.146875 5.471875 0.7203125 6.9171875 0.7203125 6.9171875 7.234375 7.6375 7.234375 7.6375 4.334375 9.090625 4.334375 9.0875 7.234375 9.8078125 7.234375 9.8078125 5.053125 11.2578125 5.053125 11.2578125 7.953125 11.978125 7.953125 11.978125 5.7734375 12.7 5.7734375 12.7 6.49375 13.4296875 6.49375 13.4296875 11.5546875 12.709375 11.5546875 12.709375 13.7296875 11.9890625 13.7296875 11.9890625 15.184375 6.190625 15.184375 6.190625 13.7296875"></polygon>
                        <path d="M5.46875,0 L6.9140625,0 L6.9140625,0.7203125 L5.46875,0.7203125 L5.46875,0 Z M12.6984375,5.7734375 L13.428125,5.7734375 L13.428125,6.49375 L12.6984375,6.49375 L12.6984375,5.7734375 Z M13.428125,6.49375 L14.1484375,6.49375 L14.1484375,11.5546875 L13.428125,11.5546875 L13.428125,6.49375 Z M12.7078125,11.5546875 L13.428125,11.5546875 L13.428125,13.7296875 L12.7078125,13.7296875 L12.7078125,11.5546875 Z M11.9875,15.184375 L6.1890625,15.184375 L6.1890625,13.7296875 L5.46875,13.7296875 L5.46875,15.9046875 L12.7078125,15.9046875 L12.7078125,13.7296875 L11.9875,13.7296875 L11.9875,15.184375 Z M4.7484375,12.2890625 L5.46875,12.2890625 L5.46875,13.7296875 L4.7484375,13.7296875 L4.7484375,12.2890625 Z M4.028125,10.8484375 L4.7484375,10.8484375 L4.7484375,12.2890625 L4.028125,12.2890625 L4.028125,10.8484375 Z M3.3078125,9.4078125 L4.028125,9.4078125 L4.028125,10.8484375 L3.3078125,10.8484375 L3.3078125,9.4078125 Z M2.5875,8.6515625 L3.3078125,8.6515625 L3.3078125,9.4078125 L2.5875,9.4078125 L2.5875,8.6515625 Z M4.0203125,7.2265625 L4.0203125,6.50625 L1.8671875,6.50625 L1.8671875,8.6515625 L2.5875,8.6515625 L2.5875,7.2265625 L4.0203125,7.2265625 Z" id="形状" fill="#000000"></path>
                        <path d="M4.7484375,7.946875 L4.7484375,10.146875 L5.46875,10.146875 L5.46875,0.7203125 L4.7484375,0.7203125 L4.7484375,7.2265625 L4.0203125,7.2265625 L4.0203125,7.946875 L4.7484375,7.946875 Z M7.634375,7.234375 L7.634375,4.3328125 L9.0875,4.3328125 L9.0875,3.6125 L7.634375,3.6125 L7.634375,0.7203125 L6.9140625,0.7203125 L6.9140625,7.234375 L7.634375,7.234375 Z M9.8078125,7.234375 L9.8078125,5.053125 L11.2578125,5.053125 L11.2578125,4.3328125 L9.0875,4.3328125 L9.0875,7.234375 L9.8078125,7.234375 Z M11.978125,7.953125 L11.978125,5.7734375 L12.6984375,5.7734375 L12.6984375,5.053125 L11.2578125,5.053125 L11.2578125,7.953125 L11.978125,7.953125 Z" id="形状" fill="#000000"></path>
                    </g>
                </g>
            </g>
        </g>
    </g>
</svg>