<?xml version="1.0" encoding="UTF-8"?>
<svg width="47px" height="35px" viewBox="0 0 47 35" version="1.1" xmlns="http://www.w3.org/2000/svg" xmlns:xlink="http://www.w3.org/1999/xlink">
    <title>Steps-icon1-56x56</title>
    <defs>
        <polygon id="path-1" points="5 36.9995 51.9996 36.9995 51.9996 45.9995 5 45.9995"></polygon>
    </defs>
    <g id="2.-导航" stroke="none" stroke-width="1" fill="none" fill-rule="evenodd">
        <g id="2.2-内容导航-Content-Navigation" transform="translate(-545.000000, -1882.000000)">
            <g id="2.2.3-步骤条" transform="translate(540.000000, 1228.000000)">
                <g id="纵向步骤条" transform="translate(0.000000, 553.000000)">
                    <g id="编组" transform="translate(0.000000, 90.000000)">
                        <rect id="矩形" fill-opacity="0" fill="#FFFFFF" x="0" y="0" width="56" height="56"></rect>
                        <path d="M12.0001,35.3003 C11.3001,35.3003 10.7001,34.6993 10.7001,34.1003 L10.7001,13.1003 C10.7001,12.4003 11.3001,11.9003 12.0001,11.9003 L45.0001,11.9003 C45.7001,11.9003 46.2001,12.5003 46.2001,13.1003 L46.2001,34.1003 C46.2001,34.8003 45.6001,35.3003 45.0001,35.3003 L12.0001,35.3003 Z" id="Fill-1" fill="#FFFFFF"></path>
                        <path d="M44.9996,11 L11.9996,11 C10.8996,11 9.9996,11.9 9.9996,13 L9.9996,34 C9.9996,35.1 10.8996,36 11.9996,36 L44.9996,36 C46.1006,36 46.9996,35.1 46.9996,34 L46.9996,13 C46.9996,11.9 46.1006,11 44.9996,11 M44.9996,12.5 C45.3006,12.5 45.4996,12.7 45.4996,13 L45.4996,34 C45.4996,34.3 45.3006,34.5 44.9996,34.5 L11.9996,34.5 C11.6996,34.5 11.4996,34.3 11.4996,34 L11.4996,13 C11.4996,12.7 11.6996,12.5 11.9996,12.5 L44.9996,12.5" id="Fill-3" fill="#19191A"></path>
                        <path d="M18.0001,21.2998 C17.9001,21.2998 17.7001,21.1998 17.7001,21.0998 L17.7001,17.0998 C17.7001,16.9998 17.8001,16.8998 18.0001,16.8998 L22.0001,16.8998 C22.1001,16.8998 22.3001,16.9998 22.3001,17.0998 L22.3001,21.0998 C22.3001,21.1998 22.2001,21.2998 22.0001,21.2998 L18.0001,21.2998 Z" id="Fill-5" fill="#F7F7F7"></path>
                        <path d="M22.0001,16 L18.0001,16 C17.4001,16 17.0001,16.4 17.0001,17 L17.0001,21 C17.0001,21.6 17.4001,22 18.0001,22 L22.0001,22 C22.6001,22 23.0001,21.6 23.0001,21 L23.0001,17 C23.0001,16.5 22.6001,16 22.0001,16 L22.0001,16 Z M18.5001,20.5 L21.5001,20.5 L21.5001,17.5 L18.5001,17.5 L18.5001,20.5 Z" id="Fill-7" fill="#C00000"></path>
                        <path d="M18.0001,30.3003 C17.9001,30.3003 17.7001,30.1993 17.7001,30.1003 L17.7001,26.1003 C17.7001,26.0003 17.8001,25.9003 18.0001,25.9003 L22.0001,25.9003 C22.1001,25.9003 22.3001,26.0003 22.3001,26.1003 L22.3001,30.1003 C22.3001,30.1993 22.2001,30.3003 22.0001,30.3003 L18.0001,30.3003 Z" id="Fill-9" fill="#FFFFFF"></path>
                        <path d="M22.0001,25 L18.0001,25 C17.4001,25 17.0001,25.4 17.0001,26 L17.0001,30 C17.0001,30.6 17.4001,31 18.0001,31 L22.0001,31 C22.6001,31 23.0001,30.6 23.0001,30 L23.0001,26 C23.0001,25.5 22.6001,25 22.0001,25 L22.0001,25 Z M18.5001,29.5 L21.5001,29.5 L21.5001,26.5 L18.5001,26.5 L18.5001,29.5 Z" id="Fill-11" fill="#C00000"></path>
                        <path d="M39.0001,29 C39.6001,29 40.0001,29.4 40.0001,30 C40.0001,30.6 39.6001,31 39.0001,31 L29.0001,31 C28.4001,31 28.0001,30.6 28.0001,30 C28.0001,29.4 28.5001,29 29.0001,29 L39.0001,29 Z M39.0001,25 C39.6001,25 40.0001,25.4 40.0001,26 C40.0001,26.6 39.6001,27 39.0001,27 L29.0001,27 C28.4001,27 28.0001,26.6 28.0001,26 C28.0001,25.4 28.5001,25 29.0001,25 L39.0001,25 Z M39.0001,20 C39.6001,20 40.0001,20.4 40.0001,21 C40.0001,21.6 39.6001,22 39.0001,22 L29.0001,22 C28.4001,22 28.0001,21.6 28.0001,21 C28.0001,20.4 28.5001,20 29.0001,20 L39.0001,20 Z M39.0001,16 C39.6001,16 40.0001,16.4 40.0001,17 C40.0001,17.6 39.6001,18 39.0001,18 L29.0001,18 C28.4001,18 28.0001,17.6 28.0001,17 C28.0001,16.5 28.5001,16 29.0001,16 L39.0001,16 Z" id="形状结合" fill="#19191A"></path>
                        <path d="M7.0001,45.3003 C6.4001,45.3003 5.9001,44.9003 5.8001,44.3003 L10.4001,37.8003 L46.6001,37.8003 L51.2001,44.3003 C51.1001,44.9003 50.6001,45.3003 50.0001,45.3003 L7.0001,45.3003 Z" id="Fill-21" fill="#CCCCCC"></path>
                        <mask id="mask-2" fill="white">
                            <use xlink:href="#path-1"></use>
                        </mask>
                        <g id="Clip-24"></g>
                        <path d="M46.9996,36.9995 L9.9996,36.9995 L4.9996,43.9995 C4.9996,45.1005 5.8996,45.9995 6.9996,45.9995 L49.9996,45.9995 C51.1006,45.9995 51.9996,45.1005 51.9996,43.9995 L46.9996,36.9995 Z M46.3006,38.4995 L50.4996,44.3005 C50.3996,44.3995 50.3006,44.4995 50.1006,44.4995 L7.1006,44.4995 C6.8996,44.4995 6.7996,44.3995 6.6996,44.3005 L10.8996,38.4995 L46.3006,38.4995 L46.3006,38.4995 Z" id="Fill-23" fill="#19191A" mask="url(#mask-2)"></path>
                        <polygon id="Fill-25" fill="#FFFFFF" mask="url(#mask-2)" points="19.7999 45.3003 19.7999 45.1993 21.1999 41.8003 36.8999 41.8003 38.2999 45.1993 38.2999 45.3003"></polygon>
                        <path d="M37.4,40.9995 L20.7,40.9995 L19.1,44.9995 C19.1,45.6005 19.4,45.9995 19.8,45.9995 L38.5,45.9995 C38.9,45.9995 39.2,45.6005 39.2,44.9995 L37.4,40.9995 Z M36.4,42.4995 L37.2,44.4995 L20.9,44.4995 L21.7,42.4995 L36.4,42.4995 L36.4,42.4995 Z" id="Fill-27" fill="#19191A" mask="url(#mask-2)"></path>
                    </g>
                </g>
            </g>
        </g>
    </g>
</svg>