<?xml version="1.0" encoding="UTF-8"?>
<svg width="28px" height="28px" viewBox="0 0 28 28" version="1.1" xmlns="http://www.w3.org/2000/svg" xmlns:xlink="http://www.w3.org/1999/xlink">
    <title>导航/翻页/左翻页</title>
    <g id="2.-导航" stroke="none" stroke-width="1" fill="none" fill-rule="evenodd">
        <g id="2.2-内容导航-Content-Navigation" transform="translate(-854.000000, -1100.000000)">
            <g id="2.2.2-分页" transform="translate(540.000000, 500.000000)">
                <g id="切换后" transform="translate(0.000000, 580.000000)">
                    <g id="导航/翻页/左翻页" transform="translate(314.000000, 20.000000)">
                        <circle id="椭圆形" stroke="#E5E5E5" fill="#FFFFFF" cx="14" cy="14" r="13.5"></circle>
                        <g id="编组" transform="translate(8.000000, 8.000000)" fill-rule="nonzero">
                            <g id="常规icon/向左16px">
                                <rect id="矩形" fill="#000000" opacity="0" x="0" y="0" width="12" height="12"></rect>
                                <path d="M9.02903796,11.8426892 C9.23878566,11.6329415 9.23878566,11.2942986 9.02903796,11.0833791 L3.94587871,6.00021988 L9.02903796,0.917060637 C9.23878566,0.707312941 9.23878566,0.368670012 9.02903796,0.157750535 C8.81929027,-0.0531689414 8.48064734,-0.0519971602 8.26972786,0.157750535 L3.08579598,5.34168243 C2.90534265,5.52213575 2.81394422,5.76117782 2.81394422,6.00021988 C2.81394422,6.23926194 2.90534265,6.47713223 3.08579598,6.65875734 L8.26972786,11.8426892 C8.47947555,12.0524369 8.82046204,12.0524369 9.02903796,11.8426892 Z" id="路径" fill="#4B4B4D"></path>
                            </g>
                        </g>
                    </g>
                </g>
            </g>
        </g>
    </g>
</svg>