<?xml version="1.0" encoding="UTF-8"?>
<svg width="14px" height="14px" viewBox="0 0 14 14" version="1.1" xmlns="http://www.w3.org/2000/svg" xmlns:xlink="http://www.w3.org/1999/xlink">
    <title>repeat</title>
    <g id="3.-数据录入" stroke="none" stroke-width="1" fill="none" fill-rule="evenodd">
        <g id="3.1-文本录入-Text-Entry" transform="translate(-828.000000, -2993.000000)" fill-rule="nonzero">
            <g id="3.1.3搜索" transform="translate(540.000000, 2312.000000)">
                <g id="无结果" transform="translate(0.000000, 438.000000)">
                    <g id="Search下拉框——有记录" transform="translate(0.000000, 90.000000)">
                        <g id="下拉框" transform="translate(0.000000, 38.000000)">
                            <g id="图标链接" transform="translate(288.000000, 111.000000)">
                                <g id="repeat" transform="translate(0.000000, 4.000000)">
                                    <rect id="矩形" fill="#000000" opacity="0" x="0" y="0" width="13.9986329" height="13.9986329"></rect>
                                    <path d="M8.30211893,12.8913192 C8.22146275,12.6493506 7.97539303,12.4743677 7.71701982,12.4743677 L7.71155161,12.4743677 C6.53725222,12.7067669 5.26862611,12.479836 4.14217362,11.8373206 C2.84347232,11.1114149 1.91660971,9.91660971 1.53110048,8.47300068 C1.34518113,7.77443609 1.29460014,7.05399863 1.38345865,6.33219412 C1.47231716,5.59671907 1.70198223,4.89268626 2.06425154,4.2378674 L3.27546138,4.88448394 L3.52016405,1.2836637 L0,3.00205058 L1.13875598,3.65276828 C0.2734108,5.20847573 0.0642515379,7.02255639 0.549555707,8.76555024 C0.781954887,9.59808612 1.15789474,10.3663705 1.66780588,11.0526316 C2.19002051,11.7525632 2.82433356,12.328093 3.55297334,12.7614491 C4.21872864,13.1537936 4.93643199,13.4190021 5.68694463,13.5529733 C6.05878332,13.6185919 6.43335612,13.6527683 6.80929597,13.6527683 C7.16609706,13.6527683 7.52289815,13.6226931 7.87969925,13.5639098 L7.88243336,13.5639098 C8.2228298,13.4791524 8.38277512,13.2221463 8.30075188,12.8926863 L8.30211893,12.8913192 Z M12.861244,10.4142174 L13.089542,9.95898838 L13.0909091,9.95762133 C13.7498291,8.40601504 13.8277512,6.66302119 13.3110048,5.04989747 C12.7915243,3.4354067 11.7183869,2.07655502 10.2857143,1.22488038 C8.96103896,0.481203008 7.44224197,0.188653452 6.11756664,0.42378674 L6.11619959,0.42378674 C5.90567327,0.475734792 5.74709501,0.589200273 5.68010936,0.734107997 C5.62952837,0.844839371 5.63499658,0.970608339 5.69788107,1.09911141 C5.77853725,1.33971292 6.02460697,1.51469583 6.28161312,1.51469583 L6.28571429,1.51469583 C6.88038278,1.4354067 7.47778537,1.45591251 8.06288448,1.57484621 C8.6507177,1.6937799 9.22898154,1.91524265 9.77990431,2.22966507 C10.9993165,2.91592618 11.9056733,4.03691046 12.3308271,5.38619275 C12.7518797,6.72043746 12.6630212,8.1367054 12.0833903,9.37662338 L12.0820232,9.37935748 C12.0191388,9.56801094 11.9029392,9.70745044 11.8632946,9.75256323 L10.7286398,9.10594668 L10.4866712,12.7409433 L10.4853042,12.7532468 L10.4935065,12.7614491 C10.4989747,12.7669173 10.5030759,12.7710185 10.5194805,12.7710185 C10.5905673,12.7710185 10.8708134,12.6657553 12.2706767,11.9576213 C13.1086808,11.5338346 13.9480519,11.0936432 13.9562543,11.089542 L14,11.0663021 L12.861244,10.4142174 Z" id="形状" fill="#0060BF"></path>
                                </g>
                            </g>
                        </g>
                    </g>
                </g>
            </g>
        </g>
    </g>
</svg>