<?xml version="1.0" encoding="UTF-8"?>
<svg width="28px" height="28px" viewBox="0 0 28 28" version="1.1" xmlns="http://www.w3.org/2000/svg" xmlns:xlink="http://www.w3.org/1999/xlink">
    <title>导航/翻页/右翻页</title>
    <g id="2.-导航" stroke="none" stroke-width="1" fill="none" fill-rule="evenodd">
        <g id="2.2-内容导航-Content-Navigation" transform="translate(-1080.000000, -1100.000000)">
            <g id="2.2.2-分页" transform="translate(540.000000, 500.000000)">
                <g id="切换后" transform="translate(0.000000, 580.000000)">
                    <g id="导航/翻页/翻页控件备份" transform="translate(314.000000, 20.000000)">
                        <g id="导航/翻页/右翻页" transform="translate(226.000000, 0.000000)">
                            <circle id="椭圆形" stroke="#E5E5E5" fill="#FFFFFF" cx="14" cy="14" r="13.5"></circle>
                            <g id="编组" transform="translate(9.000000, 8.000000)" fill-rule="nonzero">
                                <g id="向右">
                                    <rect id="矩形" fill="#000000" opacity="0" x="0" y="0" width="12" height="12"></rect>
                                    <path d="M2.97096204,11.8426892 C2.76121434,11.6329415 2.76121434,11.2942986 2.97096204,11.0833791 L8.05412129,6.00021988 L2.97096204,0.917060637 C2.76121434,0.707312941 2.76121434,0.368670012 2.97096204,0.157750535 C3.18070973,-0.0531689414 3.51935266,-0.0519971602 3.73027214,0.157750535 L8.91420402,5.34168243 C9.09465735,5.52213575 9.18605578,5.76117782 9.18605578,6.00021988 C9.18605578,6.23926194 9.09465735,6.47713223 8.91420402,6.65875734 L3.73027214,11.8426892 C3.52052445,12.0524369 3.17953796,12.0524369 2.97096204,11.8426892 Z" id="路径" fill="#4B4B4D"></path>
                                </g>
                            </g>
                        </g>
                    </g>
                </g>
            </g>
        </g>
    </g>
</svg>