<?xml version="1.0" encoding="UTF-8"?>
<svg width="29px" height="28px" viewBox="0 0 29 28" version="1.1" xmlns="http://www.w3.org/2000/svg" xmlns:xlink="http://www.w3.org/1999/xlink">
    <title>导航icon1-28px</title>
    <g id="2.-导航" stroke="none" stroke-width="1" fill="none" fill-rule="evenodd">
        <g id="2.2-内容导航-Content-Navigation" transform="translate(-832.000000, -2417.000000)">
            <g id="2.2.4-标签页" transform="translate(540.000000, 2223.000000)">
                <g id="导航/横向导航/顶部锚点导航" transform="translate(0.000000, 175.000000)">
                    <g id="导航icon1-28px" transform="translate(292.407767, 19.000000)">
                        <rect id="矩形" fill="#FFFFFF" opacity="0" x="0" y="0" width="28" height="28"></rect>
                        <path d="M22.2,10.8 L22.2,10.8 L25.8,14.4 L22.2,18 L18.6,14.4 L22.2,10.8 L22.2,10.8 M6.6,10.8 L6.6,10.8 L10.2,14.4 L6.6,18 L3,14.4 L6.6,10.8 C6.5,10.8 6.5,10.8 6.6,10.8 M14.4,18.6 L14.4,18.6 L18,22.2 L14.4,25.8 L10.8,22.2 L14.4,18.6 L14.4,18.6 M22.2,8.8 C21.7,8.8 21.2,9 20.8,9.4 L17.2,13 C16.4,13.8 16.4,15.1 17.2,15.9 L20.8,19.5 C21.2,19.9 21.7,20.1 22.2,20.1 C22.7,20.1 23.2,19.9 23.6,19.5 L27.2,15.9 C28,15.1 28,13.8 27.2,13 L23.6,9.4 C23.2,9 22.7,8.8 22.2,8.8 L22.2,8.8 Z M6.6,8.8 C6.1,8.8 5.6,9 5.2,9.4 L1.6,13 C0.8,13.8 0.8,15.1 1.6,15.9 L5.1,19.4 C5.5,19.8 6,20 6.5,20 C7,20 7.5,19.8 7.9,19.4 L11.5,15.8 C12.3,15 12.3,13.7 11.5,12.9 L8,9.4 C7.6,9 7.1,8.8 6.6,8.8 L6.6,8.8 Z M14.4,16.6 C13.9,16.6 13.4,16.8 13,17.2 L9.4,20.8 C8.6,21.6 8.6,22.9 9.4,23.7 L13,27.3 C13.4,27.7 13.9,27.9 14.4,27.9 C14.9,27.9 15.4,27.7 15.8,27.3 L19.4,23.7 C20.2,22.9 20.2,21.6 19.4,20.8 L15.8,17.2 C15.4,16.8 14.9,16.6 14.4,16.6 L14.4,16.6 Z" id="形状" fill="#232323" fill-rule="nonzero"></path>
                        <path d="M14.4,3 L14.4,3 L18,6.6 L14.4,10.2 L10.8,6.6 L14.4,3 L14.4,3 M14.4,1 C13.9,1 13.4,1.2 13,1.6 L9.4,5.1 C8.6,5.9 8.6,7.2 9.4,8 L13,11.6 C13.4,12 13.9,12.2 14.4,12.2 C14.9,12.2 15.4,12 15.8,11.6 L19.4,8 C20.2,7.2 20.2,5.9 19.4,5.1 L15.8,1.5 C15.4,1.2 14.9,1 14.4,1 L14.4,1 Z" id="形状" fill="#89898C" fill-rule="nonzero"></path>
                    </g>
                </g>
            </g>
        </g>
    </g>
</svg>