<?xml version="1.0" encoding="UTF-8"?>
<svg width="29px" height="28px" viewBox="0 0 29 28" version="1.1" xmlns="http://www.w3.org/2000/svg" xmlns:xlink="http://www.w3.org/1999/xlink">
    <title>导航icon1-28px</title>
    <g id="2.-导航" stroke="none" stroke-width="1" fill="none" fill-rule="evenodd">
        <g id="2.2-内容导航-Content-Navigation" transform="translate(-977.000000, -2417.000000)">
            <g id="2.2.4-标签页" transform="translate(540.000000, 2223.000000)">
                <g id="导航/横向导航/顶部锚点导航" transform="translate(0.000000, 175.000000)">
                    <g id="横向导航/顶部导航/选项1备份-3" transform="translate(437.132743, 19.000000)">
                        <g id="导航icon1-28px" transform="translate(-0.000000, 0.000000)">
                            <rect id="矩形" fill="#FFFFFF" opacity="0" x="0" y="0" width="28" height="28"></rect>
                            <path d="M24.2,5.9 L13.6,4 C13.5,4 13.3,4 13.2,4 L2.8,5.9 C2.4,6 2,6.4 2,6.9 L2,18.6 C2,19 2.2,19.3 2.6,19.5 L13,24.9 C13.2,25 13.3,25 13.5,25 C13.7,25 13.8,25 14,24.9 L24.5,19.5 C24.8,19.3 25.1,19 25.1,18.6 L25.1,6.9 C25,6.4 24.6,6 24.2,5.9 Z M12.4,12.5 L12.4,16 L4.1,17.5 L4.1,8.5 L4.4,7.8 L12.4,6.3 L12.4,10.4 L12.4,12.5 Z M12.4,18 L12.4,22.3 L6.2,19.1 L12.4,18 L12.4,18 Z M14.4,18 L20.7,19.1 L14.4,22.3 L14.4,18 L14.4,18 Z M14.4,10.4 L14.4,6.2 L22.7,7.7 L22.9,8.2 L22.9,17.3 L14.4,15.8 L14.4,12.6 L14.4,10.4 Z" id="形状" fill="#232323" fill-rule="nonzero"></path>
                            <polygon id="路径" fill="#89898C" fill-rule="nonzero" points="12 10 11 10 11 12 12 13 15 13 16 12 16 10"></polygon>
                            <path d="M7.7,10.7 L8.5,8.8 L10.5,9.6 L9.7,11.5 L7.7,10.7 Z M4.8,9.5 L5.6,7.6 L7.6,8.4 L6.7,10.3 L4.8,9.5 Z M19.5,8.4 L21.5,7.6 L22.3,9.5 L20.3,10.3 L19.5,8.4 Z M16.6,9.5 L18.6,8.7 L19.4,10.6 L17.4,11.4 L16.6,9.5 Z" id="形状" fill="#89898C" fill-rule="nonzero"></path>
                        </g>
                    </g>
                </g>
            </g>
        </g>
    </g>
</svg>