<?xml version="1.0" encoding="UTF-8"?>
<svg width="53px" height="44px" viewBox="0 0 53 44" version="1.1" xmlns="http://www.w3.org/2000/svg" xmlns:xlink="http://www.w3.org/1999/xlink">
    <title>Steps-icon4-56x56</title>
    <g id="2.-导航" stroke="none" stroke-width="1" fill="none" fill-rule="evenodd">
        <g id="2.2-内容导航-Content-Navigation" transform="translate(-541.000000, -2092.000000)">
            <g id="2.2.3-步骤条" transform="translate(540.000000, 1228.000000)">
                <g id="纵向步骤条" transform="translate(0.000000, 553.000000)">
                    <g id="导航/步骤条/竖向步骤条" transform="translate(0.000000, 90.000000)">
                        <g id="编组" transform="translate(0.000000, 216.000000)">
                            <rect id="矩形" fill="#FFFFFF" opacity="0" x="0" y="0" width="56" height="56"></rect>
                            <polygon id="Fill-1" fill="#CCCCCC" points="9.0001 24.4 26.7001 18.4 45.4001 24.4 26.7001 30.5"></polygon>
                            <path d="M26.6998,17.9 L7.4998,24.4 L26.6998,31 L46.9998,24.4 L26.6998,17.9 Z M26.6998,18.9 L43.8008,24.4 L26.6998,29.9 L10.4998,24.4 L26.6998,18.9 Z" id="Fill-2" fill="#19191A"></path>
                            <polygon id="Fill-3" fill="#F7F7F7" points="17.8 31.9 38.3 31.9 38.3 11.8 17.8 11.8"></polygon>
                            <path d="M17,32.6 L39,32.6 L39,11 L17,11 L17,32.6 Z M18.5,31.1 L37.5,31.1 L37.5,12.5 L18.5,12.5 L18.5,31.1 Z" id="Fill-4" fill="#19191A"></path>
                            <path d="M8.0002,42.9997 L28.0002,48.9997 L28.0002,29.9997 L8.0002,23.9997 L8.0002,42.9997 Z M9.5002,41.8997 L9.5002,26.0007 L26.4992,31.0997 L26.4992,46.9997 L9.5002,41.8997 Z" id="Fill-5" fill="#19191A"></path>
                            <polygon id="Fill-6" fill="#FFFFFF" points="2.4 31.6002 8.3 24.9002 26.7 30.4002 20.8 37.2002"></polygon>
                            <path d="M1,31.9999 L21,37.9989 L28,29.9989 L8,23.9999 L1,31.9999 Z M3.7,31.3009 L8.5,25.6999 L25.3,30.7999 L20.5,36.2999 L3.7,31.3009 Z" id="Fill-7" fill="#19191A"></path>
                            <path d="M27.0001,29.9992 L27.0001,49.0002 L47.0001,42.9992 L47.0001,24.0002 L27.0001,29.9992 Z M28.5001,31.1002 L45.4991,26.0002 L45.4991,41.9002 L28.5001,46.9992 L28.5001,31.1002 Z" id="Fill-8" fill="#19191A"></path>
                            <polygon id="Fill-9" fill="#FFFFFF" points="28.4 30.4 46.8 24.9 52.7 31.6 34.3 37.2"></polygon>
                            <path d="M27.0001,29.9992 L33.9991,37.9992 L53.9991,32.0002 L47.0001,24.0002 L27.0001,29.9992 Z M29.7001,30.8002 L46.4991,25.7002 L51.3001,31.2002 L34.5001,36.3002 L29.7001,30.8002 Z" id="Fill-10" fill="#19191A"></path>
                            <g transform="translate(23.000000, 6.000000)">
                                <path d="M0.7999,5.6002 L0.7999,4.7002 C0.7999,2.3002 2.6999,0.4002 5.0999,0.4002 C7.4999,0.4002 9.3999,2.3002 9.3999,4.7002 L9.3999,5.6002" id="Stroke-11" stroke="#19191A" stroke-width="1.5"></path>
                                <path d="M6.3004,13.9 L4.1004,13.9 C3.8004,13.9 3.6004,13.7 3.6004,13.4 C3.6004,13.1 3.8004,12.9 4.1004,12.9 L6.3004,12.9 C6.6004,12.9 6.8004,13.1 6.8004,13.4 C6.8004,13.7 6.6004,13.9 6.3004,13.9 M4.9004,15.5 L4.0004,15.5 C3.6994,15.5 3.5004,15.3 3.5004,15 C3.5004,14.7 3.6994,14.5 4.0004,14.5 L4.9004,14.5 C5.1994,14.5 5.4004,14.7 5.4004,15 C5.4004,15.3 5.1994,15.5 4.9004,15.5 M7.9004,12.2 L7.1004,12.2 L4.1994,12.2 C3.9004,12.2 3.6004,11.9 3.6004,11.6 C3.6004,11.3 3.9004,11 4.1994,11 L7.1004,11 L7.4004,11 C6.8004,10.3 5.9004,9.9 4.8004,9.9 C2.9004,9.9 1.4004,11.4 1.4004,13.3 C1.4004,15.2 2.9004,16.7 4.8004,16.7 C6.6994,16.7 8.1994,15.2 8.1994,13.3 C8.1994,12.9 8.1004,12.5 7.9994,12.1 C8.1004,12.2 7.9994,12.2 7.9004,12.2" id="Fill-13" fill="#C00000"></path>
                                <path d="M8.4996,11.6002 C8.4996,11.3002 8.1996,11.0002 7.8996,11.0002 L7.4996,11.0002 C7.8006,11.3002 7.9996,11.7002 8.1996,12.1002 C8.3996,12.1002 8.4996,11.9002 8.4996,11.6002" id="Fill-15" fill="#C00000"></path>
                            </g>
                        </g>
                    </g>
                </g>
            </g>
        </g>
    </g>
</svg>