<?xml version="1.0" encoding="UTF-8"?>
<svg width="54px" height="33px" viewBox="0 0 54 33" version="1.1" xmlns="http://www.w3.org/2000/svg" xmlns:xlink="http://www.w3.org/1999/xlink">
    <title>Steps-icon2-56x56</title>
    <defs>
        <polygon id="path-1" points="0.0002 0.0002 10.0002 0.0002 10.0002 10 0.0002 10"></polygon>
        <polygon id="path-3" points="0.0002 0.0002 10.0002 0.0002 10.0002 10 0.0002 10"></polygon>
    </defs>
    <g id="2.-导航" stroke="none" stroke-width="1" fill="none" fill-rule="evenodd">
        <g id="2.2-内容导航-Content-Navigation" transform="translate(-541.000000, -1955.000000)">
            <g id="2.2.3-步骤条" transform="translate(540.000000, 1228.000000)">
                <g id="纵向步骤条" transform="translate(0.000000, 553.000000)">
                    <g id="导航/步骤条/竖向步骤条" transform="translate(0.000000, 90.000000)">
                        <g id="编组" transform="translate(0.000000, 72.000000)">
                            <rect id="矩形" fill="#FFFFFF" opacity="0" x="0" y="0" width="56" height="56"></rect>
                            <polygon id="Fill-1" fill="#CCCCCC" points="34.7005 19.7001 34.7005 39.2001 54.2005 39.2001 54.2005 29.1001 45.7005 19.7001"></polygon>
                            <path d="M34.0003,18.9999 L34.0003,40.0009 L55.0003,40.0009 L55.0003,28.7999 L46.0003,18.9999 L34.0003,18.9999 Z M35.5003,20.3999 L45.3993,20.3999 L53.5003,29.3999 L53.5003,38.3999 L35.5003,38.3999 L35.5003,20.3999 Z" id="Fill-2" fill="#19191A"></path>
                            <polygon id="Fill-3" fill="#FFFFFF" points="38.7004 31.2004 38.7004 24.7004 43.5994 24.7004 47.2004 28.0004 47.2004 31.2004"></polygon>
                            <path d="M43.8996,24.0002 L37.8996,24.0002 L37.8996,32.0002 L47.8996,32.0002 L47.8996,27.8002 L43.8996,24.0002 Z M43.2996,25.4002 L46.3996,28.3002 L46.3996,30.3992 L39.3996,30.3992 L39.3996,25.4002 L43.2996,25.4002 Z" id="Fill-4" fill="#19191A"></path>
                            <polygon id="Fill-5" fill="#FFFFFF" points="1.7 39.2 31.2 39.2 31.2 12.699 1.7 12.699"></polygon>
                            <path d="M1,40.001 L32.001,40.001 L32.001,12.001 L1,12.001 L1,40.001 Z M2.4,38.399 L30.399,38.399 L30.399,13.4 L2.4,13.4 L2.4,38.399 Z" id="Fill-6" fill="#19191A"></path>
                            <polygon id="Fill-7" fill="#C00000" points="2.5 32.5 30.5 32.5 30.5 31 2.5 31"></polygon>
                            <path d="M11.0002,44.2004 C8.7002,44.2004 6.8002,42.3004 6.8002,40.0004 C6.8002,37.7004 8.7002,35.8004 11.0002,35.8004 C13.3002,35.8004 15.2002,37.7004 15.2002,40.0004 C15.2002,42.3004 13.3002,44.2004 11.0002,44.2004" id="Fill-8" fill="#FFFFFF"></path>
                            <g transform="translate(6.000000, 35.000000)">
                                <mask id="mask-2" fill="white">
                                    <use xlink:href="#path-1"></use>
                                </mask>
                                <g id="Clip-11"></g>
                                <path d="M5.0002,0.0002 C2.2002,0.0002 0.0002,2.2002 0.0002,5.0002 C0.0002,7.8002 2.2002,10.0002 5.0002,10.0002 C7.8002,10.0002 10.0002,7.8002 10.0002,5.0002 C10.0002,2.2002 7.7002,0.0002 5.0002,0.0002 M5.0002,1.3992 C6.9002,1.3992 8.5002,3.0002 8.5002,4.8992 C8.5002,6.8002 6.9002,8.3992 5.0002,8.3992 C3.1002,8.3992 1.5002,6.8002 1.5002,4.8992 C1.5002,3.0002 3.0002,1.3992 5.0002,1.3992" id="Fill-10" fill="#19191A" mask="url(#mask-2)"></path>
                            </g>
                            <path d="M44.0002,44.2004 C41.7002,44.2004 39.7002,42.3004 39.7002,40.0004 C39.7002,37.7004 41.6002,35.8004 44.0002,35.8004 C46.3002,35.8004 48.2002,37.7004 48.2002,40.0004 C48.2002,42.3004 46.3002,44.2004 44.0002,44.2004" id="Fill-12" fill="#FFFFFF"></path>
                            <g transform="translate(39.000000, 35.000000)">
                                <mask id="mask-4" fill="white">
                                    <use xlink:href="#path-3"></use>
                                </mask>
                                <g id="Clip-15"></g>
                                <path d="M5.0002,0.0002 C2.2002,0.0002 0.0002,2.2002 0.0002,5.0002 C0.0002,7.8002 2.2002,10.0002 5.0002,10.0002 C7.8002,10.0002 10.0002,7.8002 10.0002,5.0002 C10.0002,2.2002 7.7002,0.0002 5.0002,0.0002 M5.0002,1.3992 C6.8992,1.3992 8.5002,3.0002 8.5002,4.8992 C8.5002,6.8002 6.8992,8.3992 5.0002,8.3992 C3.1002,8.3992 1.5002,6.8002 1.5002,4.8992 C1.5002,3.0002 3.0002,1.3992 5.0002,1.3992" id="Fill-14" fill="#19191A" mask="url(#mask-4)"></path>
                            </g>
                        </g>
                    </g>
                </g>
            </g>
        </g>
    </g>
</svg>