<?xml version="1.0" encoding="UTF-8"?>
<svg width="28px" height="28px" viewBox="0 0 28 28" version="1.1" xmlns="http://www.w3.org/2000/svg" xmlns:xlink="http://www.w3.org/1999/xlink">
    <title>导航icon1-28px</title>
    <g id="2.-导航" stroke="none" stroke-width="1" fill="none" fill-rule="evenodd">
        <g id="2.2-内容导航-Content-Navigation" transform="translate(-540.000000, -2417.000000)">
            <g id="2.2.4-标签页" transform="translate(540.000000, 2223.000000)">
                <g id="导航/横向导航/顶部锚点导航" transform="translate(0.000000, 175.000000)">
                    <g id="导航icon1-28px" transform="translate(0.000000, 19.000000)">
                        <rect id="矩形" fill="#FFFFFF" opacity="0" x="0" y="0" width="28" height="28"></rect>
                        <path d="M13.1,13.175 L8.1,13.175 C7,13.175 6.1,14.075 6.1,15.075 L6.1,16.075 L5.3,16.075 C4,16.075 3,17.075 3,18.275 L3,21.875 C3,23.075 4,24.075 5.3,24.075 L9.1,24.075 C10.4,24.075 11.4,23.075 11.4,21.875 L11.4,18.275 C11.4,17.075 10.4,16.075 9.1,16.075 L8.2,16.075 L8.2,15.075 L19.9,15.075 L19.9,16.075 L19,16.075 C17.7,16.075 16.7,17.075 16.7,18.275 L16.7,21.875 C16.7,23.075 17.7,24.075 19,24.075 L22.8,24.075 C24.1,24.075 25.1,23.075 25.1,21.875 L25.1,18.275 C25.1,17.075 24.1,16.075 22.8,16.075 L21.9,16.075 L21.9,15.075 C21.9,13.975 21,13.175 19.9,13.175 L14.9,13.175 M9.4,18.275 L9.4,21.875 C9.4,22.075 9.3,22.175 9.1,22.175 L5.3,22.175 C5.1,22.175 5,22.075 5,21.875 L5,18.275 C5,18.075 5.1,17.975 5.3,17.975 L9.1,17.975 C9.2,17.975 9.4,18.075 9.4,18.275 Z M23,21.875 C23,22.075 22.9,22.175 22.7,22.175 L18.9,22.175 C18.7,22.175 18.6,22.075 18.6,21.875 L18.6,18.275 C18.6,18.075 18.7,17.975 18.9,17.975 L22.7,17.975 C22.9,17.975 23,18.075 23,18.275 L23,21.875 Z" id="形状" fill="#232323" fill-rule="nonzero"></path>
                        <path d="M18.1,7.075 L15.7,4.675 C14.8,3.775 13.4,3.775 12.5,4.675 L10,7.175 C9.1,8.075 9.1,9.475 10,10.375 L12.4,12.775 C12.6,12.875 12.9,13.075 13.1,13.175 L14.8,13.175 C15.1,13.075 15.3,12.875 15.5,12.675 L18,10.175 C19,9.375 19,7.975 18.1,7.075 Z M16.7,8.875 L14.2,11.375 C14.1,11.475 13.9,11.475 13.8,11.375 L11.4,8.975 C11.3,8.875 11.3,8.675 11.4,8.575 L13.9,6.075 C13.9,6.075 14,5.975 14.1,5.975 C14.2,5.975 14.3,5.975 14.3,6.075 L16.7,8.475 C16.8,8.575 16.8,8.775 16.7,8.875 Z" id="形状" fill="#8D8D8F" fill-rule="nonzero"></path>
                    </g>
                </g>
            </g>
        </g>
    </g>
</svg>