<?xml version="1.0" encoding="UTF-8"?>
<svg width="60px" height="24px" viewBox="0 0 60 24" version="1.1" xmlns="http://www.w3.org/2000/svg" xmlns:xlink="http://www.w3.org/1999/xlink">
    <title>图片上传标签</title>
    <g id="3.-数据录入" stroke="none" stroke-width="1" fill="none" fill-rule="evenodd">
        <g id="3.3-上传-Upload" transform="translate(-570.000000, -3503.000000)">
            <g id="3.3.3-显示缩略图上传" transform="translate(540.000000, 1966.000000)">
                <g id="上传图片" transform="translate(0.000000, 1250.000000)">
                    <g id="输入框/上传/图片已上传带tag" transform="translate(0.000000, 240.000000)">
                        <g id="编组" transform="translate(30.000000, 47.000000)">
                            <rect id="矩形" fill="#19191A" x="0" y="0" width="60" height="24" rx="12"></rect>
                            <g transform="translate(10.000000, 6.000000)" fill="#FFFFFF" fill-rule="nonzero" id="常用图标/community_label-12px">
                                <g transform="translate(6.000000, 5.999955) scale(-1, 1) translate(-6.000000, -5.999955) " id="编组">
                                    <path d="M11.9975659,5.09996161 L11.8299891,1.31952132 C11.8241297,1.00428931 11.6987401,0.708979038 11.4749136,0.486324464 C11.2510872,0.26366989 10.954605,0.140623941 10.639373,0.137108343 L6.89994806,0 L6.88002633,0 C6.38081134,0 5.91206487,0.194529786 5.55933315,0.547261505 L0.547261505,5.55816128 C0.194529786,5.910893 0,6.37963947 0,6.87885446 C0,7.37806946 0.194529786,7.84681593 0.547261505,8.19954765 L3.80153388,11.45382 C4.1648124,11.8170985 4.64410566,11.9999097 5.12222706,11.9999097 C5.60034846,11.9999097 6.07846986,11.8170985 6.44292025,11.45382 L11.4526482,6.44526398 C11.804208,6.09370413 12.0034253,5.60737966 11.9999554,5.10933654 L11.9975659,5.09996161 Z M10.692107,5.68706656 L5.68355096,10.6956226 C5.52769276,10.8514808 5.32495991,10.9276521 5.12222706,10.9276521 C4.91832235,10.9276521 4.7155895,10.8503089 4.56090316,10.6956226 L1.30428706,7.44135023 C1.15428819,7.29135136 1.07108569,7.09096224 1.07108569,6.88002633 C1.07108569,6.66791855 1.15428819,6.4687013 1.30428706,6.31870243 L6.31753057,1.30663079 C6.4651857,1.15897565 6.66205922,1.07577315 6.87182327,1.07342942 L10.6077326,1.21288149 L10.6276544,1.21288149 C10.6991382,1.21288149 10.7565596,1.27030294 10.7565596,1.34061491 L10.7565596,1.34998984 L10.9241365,5.12691453 C10.9241365,5.33550671 10.8397621,5.53941142 10.692107,5.68706656 Z" id="形状"></path>
                                    <path d="M5.99239975,3.70731659 C5.99239975,4.18240268 6.17660251,4.62961383 6.51349965,4.96532518 C6.86009167,5.31194411 7.31453925,5.48525358 7.77141055,5.48525358 C8.22585813,5.48525358 8.68272944,5.31194411 9.02932146,4.96532518 C9.7225055,4.2720873 9.7225055,3.14254587 9.02932146,2.44930799 C8.33613741,1.75485817 7.20668369,1.75485817 6.51349965,2.44930799 C6.17781437,2.78501934 5.99239975,3.23101854 5.99239975,3.70731659 Z M8.24403604,4.17997877 C7.98348609,4.44054895 7.55933501,4.44054895 7.29878507,4.17997877 C7.17275161,4.05393552 7.10367557,3.88547387 7.10367557,3.70731659 C7.10367557,3.52794735 7.17275161,3.36069765 7.29878507,3.2346544 C7.42966597,3.10376333 7.60053826,3.03952975 7.77141055,3.03952975 C7.9434947,3.03952975 8.11436699,3.10497529 8.24403604,3.2346544 C8.50458598,3.49280067 8.50458598,3.91819664 8.24403604,4.17997877 Z" id="形状"></path>
                                </g>
                            </g>
                            <text id="tags" font-family="OpenSans, Open Sans" font-size="12" font-weight="normal" line-spacing="18" fill="#FFFFFF">
                                <tspan x="26" y="15">tags</tspan>
                            </text>
                        </g>
                    </g>
                </g>
            </g>
        </g>
    </g>
</svg>